M48
; DRILL file {KiCad 6.0.0} date sam. 21 mai 2022 22:27:17
; FORMAT={-:-/ absolute / inch / decimal}
; #@! TF.CreationDate,2022-05-21T22:27:17+02:00
; #@! TF.GenerationSoftware,Kicad,Pcbnew,6.0.0
; #@! TF.FileFunction,Plated,1,4,PTH
FMAT,2
INCH
; #@! TA.AperFunction,Plated,PTH,ViaDrill
T1C0.0120
; #@! TA.AperFunction,Plated,PTH,ComponentDrill
T2C0.0354
; #@! TA.AperFunction,Plated,PTH,ComponentDrill
T3C0.0433
; #@! TA.AperFunction,Plated,PTH,ComponentDrill
T4C0.0669
%
G90
G05
T1
X4.9055Y-3.3465
X4.9055Y-3.4252
X4.9055Y-3.5039
X4.9055Y-3.5827
X4.9055Y-3.6614
X4.9055Y-3.7402
X4.9055Y-3.8189
X4.9055Y-3.8976
X4.9055Y-3.9764
X4.9055Y-4.0551
X4.9055Y-4.1339
X4.9055Y-4.2126
X4.9055Y-4.2913
X4.9055Y-4.3701
X4.9055Y-4.4488
X4.9055Y-4.5276
X4.9055Y-4.6063
X4.9055Y-4.685
X4.9055Y-4.7638
X4.9055Y-4.8425
X4.9055Y-4.9213
X4.9055Y-5.0
X4.9055Y-5.0787
X4.9055Y-5.1575
X4.9055Y-5.2323
X4.9508Y-4.685
X4.9803Y-5.2323
X4.9902Y-3.9469
X4.9996Y-3.7835
X5.0Y-4.1535
X5.0Y-4.2028
X5.0098Y-3.6713
X5.0394Y-4.3307
X5.0394Y-4.3602
X5.0394Y-4.3898
X5.0492Y-3.8681
X5.0492Y-4.7244
X5.0591Y-5.2323
X5.0787Y-3.898
X5.0925Y-3.7402
X5.0984Y-3.1693
X5.0984Y-3.2799
X5.1083Y-3.8681
X5.1378Y-3.8386
X5.1378Y-4.6752
X5.1378Y-4.7559
X5.1378Y-4.7933
X5.1378Y-5.2323
X5.1437Y-3.4937
X5.1437Y-3.5535
X5.1437Y-3.6024
X5.148Y-4.0394
X5.1535Y-4.4528
X5.1535Y-4.5118
X5.1594Y-3.8091
X5.1598Y-3.3244
X5.1673Y-3.8681
X5.1673Y-3.9075
X5.1752Y-4.7559
X5.1811Y-3.7815
X5.1969Y-4.4094
X5.1969Y-4.8524
X5.1969Y-4.8819
X5.1969Y-4.9114
X5.1969Y-4.9409
X5.2067Y-3.435
X5.2067Y-4.0059
X5.2067Y-4.3031
X5.2165Y-5.2323
X5.2362Y-4.3504
X5.2362Y-5.1772
X5.252Y-3.9469
X5.2551Y-3.7323
X5.2551Y-3.7795
X5.2657Y-4.0059
X5.2657Y-4.089
X5.2657Y-4.1336
X5.2657Y-4.189
X5.2756Y-4.6161
X5.2854Y-3.5925
X5.2913Y-5.1083
X5.2953Y-5.2323
X5.3031Y-3.7
X5.3031Y-3.8591
X5.3051Y-3.75
X5.3051Y-3.8091
X5.3051Y-4.685
X5.3205Y-4.0256
X5.3319Y-4.2618
X5.3445Y-4.9213
X5.3445Y-5.0197
X5.3484Y-4.685
X5.3543Y-3.3071
X5.3543Y-4.089
X5.3642Y-3.5138
X5.3642Y-3.75
X5.3642Y-3.8091
X5.3661Y-3.7
X5.3661Y-3.8591
X5.374Y-5.2323
X5.3819Y-4.8287
X5.3819Y-5.0197
X5.3937Y-4.2126
X5.3937Y-4.5217
X5.3976Y-4.685
X5.3996Y-3.2618
X5.4075Y-4.0157
X5.4114Y-4.089
X5.4142Y-3.7795
X5.4142Y-3.8268
X5.4232Y-4.2618
X5.4232Y-4.5669
X5.4236Y-3.9665
X5.437Y-3.628
X5.4429Y-3.2185
X5.4528Y-5.2323
X5.4626Y-3.5925
X5.4626Y-4.3957
X5.4626Y-4.5217
X5.4626Y-4.5669
X5.4823Y-4.9213
X5.4823Y-5.0197
X5.4921Y-3.1693
X5.4921Y-3.3287
X5.498Y-3.5138
X5.499Y-3.9961
X5.4992Y-3.9567
X5.502Y-3.435
X5.502Y-4.3031
X5.5059Y-3.7894
X5.5197Y-4.8287
X5.5197Y-5.0197
X5.5217Y-3.7106
X5.5315Y-3.1299
X5.5315Y-4.6457
X5.5315Y-4.685
X5.5315Y-5.2323
X5.5413Y-4.0886
X5.5571Y-4.5866
X5.561Y-4.7248
X5.5709Y-4.2126
X5.5768Y-4.878
X5.5866Y-3.9173
X5.5906Y-3.1299
X5.5906Y-3.189
X5.5906Y-3.2677
X5.5906Y-3.3268
X5.6004Y-4.1831
X5.6004Y-4.7638
X5.6102Y-3.8287
X5.6102Y-5.2323
X5.6299Y-4.2126
X5.6398Y-4.498
X5.6398Y-4.7244
X5.6398Y-4.9311
X5.6594Y-5.1402
X5.6693Y-4.7638
X5.6732Y-5.0787
X5.685Y-4.5866
X5.689Y-3.7303
X5.689Y-5.2323
X5.6988Y-4.4803
X5.7087Y-4.7244
X5.7087Y-4.9311
X5.7146Y-3.6614
X5.7283Y-4.4547
X5.7677Y-3.435
X5.7677Y-4.0846
X5.7677Y-4.2618
X5.7677Y-5.2323
X5.7874Y-4.7835
X5.7972Y-4.3031
X5.8067Y-4.6161
X5.8169Y-4.7441
X5.8169Y-4.8898
X5.8465Y-3.4252
X5.8465Y-3.8878
X5.8465Y-4.0256
X5.8465Y-4.2126
X5.8465Y-5.2323
X5.8484Y-4.1142
X5.8665Y-4.4134
X5.876Y-3.8878
X5.876Y-4.0256
X5.8858Y-3.5827
X5.9016Y-4.9311
X5.9252Y-3.4252
X5.9252Y-4.811
X5.9252Y-5.1843
X5.9252Y-5.2323
X5.935Y-3.9272
X5.935Y-3.9567
X5.935Y-3.9862
X5.935Y-4.1142
X5.935Y-4.3504
X5.9638Y-3.5827
X5.9843Y-4.8071
X5.9941Y-5.1398
X6.0039Y-3.3465
X6.0039Y-3.5925
X6.0039Y-5.2323
X6.063Y-4.3504
X6.063Y-5.1772
X6.0827Y-3.2677
X6.0827Y-5.2323
X6.1024Y-3.9173
X6.1024Y-3.9567
X6.1024Y-3.9961
X6.1024Y-4.6161
X6.1024Y-4.9114
X6.122Y-4.1142
X6.122Y-4.3701
X6.1299Y-3.3425
X6.1575Y-4.311
X6.1575Y-4.9213
X6.1614Y-3.2677
X6.1614Y-5.2323
X6.2402Y-3.2677
X6.2402Y-5.2323
X6.3189Y-3.2677
X6.3189Y-5.2323
X6.3976Y-3.2677
X6.3976Y-5.2323
X6.4031Y-3.75
X6.4764Y-3.2677
X6.4764Y-5.2323
X6.5031Y-3.75
X6.5197Y-4.311
X6.5197Y-4.9213
X6.5276Y-3.3425
X6.5551Y-3.2677
X6.5551Y-5.2323
X6.5748Y-4.4409
X6.5748Y-4.5413
X6.5748Y-4.6909
X6.5748Y-4.7913
X6.6339Y-3.2677
X6.6339Y-5.2323
X6.7126Y-3.2677
X6.7126Y-5.2323
X6.7874Y-3.2677
X6.7874Y-3.3465
X6.7874Y-3.4252
X6.7874Y-3.5039
X6.7874Y-3.5827
X6.7874Y-3.6614
X6.7874Y-3.7402
X6.7874Y-3.8189
X6.7874Y-3.8976
X6.7874Y-3.9764
X6.7874Y-4.0551
X6.7874Y-4.1339
X6.7874Y-4.2126
X6.7874Y-4.2913
X6.7874Y-4.3701
X6.7874Y-4.4488
X6.7874Y-4.5276
X6.7874Y-4.6063
X6.7874Y-4.685
X6.7874Y-4.7638
X6.7874Y-4.8425
X6.7874Y-4.9213
X6.7874Y-5.0
X6.7874Y-5.0787
X6.7874Y-5.1575
X6.7874Y-5.2323
T2
X6.1299Y-3.4996
X6.203Y-3.9114
X6.228Y-3.4996
X6.253Y-4.0114
X6.303Y-3.9114
X6.353Y-4.0114
X6.403Y-3.9114
X6.453Y-4.0114
X6.503Y-3.9114
X6.528Y-3.4996
X6.553Y-4.0114
X6.626Y-3.4996
T3
X4.9894Y-5.0386
X4.9894Y-5.1386
X5.0894Y-5.0386
X5.0894Y-5.1386
X5.8555Y-3.6705
X5.8555Y-3.7705
X5.9555Y-3.6705
X5.9555Y-3.7705
T4
X6.0679Y-3.813
X6.688Y-3.813
T0
M30
