%TF.GenerationSoftware,KiCad,Pcbnew,6.0.0*%
%TF.CreationDate,2022-05-21T22:27:13+02:00*%
%TF.ProjectId,cowdin-3b-esp32,636f7764-696e-42d3-9362-2d6573703332,1*%
%TF.SameCoordinates,Original*%
%TF.FileFunction,Legend,Top*%
%TF.FilePolarity,Positive*%
%FSLAX46Y46*%
G04 Gerber Fmt 4.6, Leading zero omitted, Abs format (unit mm)*
G04 Created by KiCad (PCBNEW 6.0.0) date 2022-05-21 22:27:13*
%MOMM*%
%LPD*%
G01*
G04 APERTURE LIST*
%ADD10C,0.076200*%
%ADD11C,0.101600*%
%ADD12C,0.127000*%
%ADD13C,0.100000*%
%ADD14C,0.027940*%
%ADD15C,0.150000*%
%ADD16C,0.120000*%
G04 APERTURE END LIST*
D10*
X149390000Y-111460000D02*
X147460000Y-111460000D01*
X147460000Y-111460000D02*
X146860000Y-112060000D01*
X146872101Y-127355894D02*
X147126101Y-128117894D01*
X147380101Y-127355894D01*
X147634101Y-128117894D02*
X147634101Y-127355894D01*
X148142101Y-127355894D02*
X148287244Y-127355894D01*
X148359815Y-127392180D01*
X148432387Y-127464751D01*
X148468672Y-127609894D01*
X148468672Y-127863894D01*
X148432387Y-128009037D01*
X148359815Y-128081608D01*
X148287244Y-128117894D01*
X148142101Y-128117894D01*
X148069530Y-128081608D01*
X147996958Y-128009037D01*
X147960672Y-127863894D01*
X147960672Y-127609894D01*
X147996958Y-127464751D01*
X148069530Y-127392180D01*
X148142101Y-127355894D01*
X148795244Y-128045322D02*
X148831530Y-128081608D01*
X148795244Y-128117894D01*
X148758958Y-128081608D01*
X148795244Y-128045322D01*
X148795244Y-128117894D01*
X148795244Y-127646180D02*
X148831530Y-127682465D01*
X148795244Y-127718751D01*
X148758958Y-127682465D01*
X148795244Y-127646180D01*
X148795244Y-127718751D01*
X147416387Y-129344714D02*
X147162387Y-128981857D01*
X146980958Y-129344714D02*
X146980958Y-128582714D01*
X147271244Y-128582714D01*
X147343815Y-128619000D01*
X147380101Y-128655285D01*
X147416387Y-128727857D01*
X147416387Y-128836714D01*
X147380101Y-128909285D01*
X147343815Y-128945571D01*
X147271244Y-128981857D01*
X146980958Y-128981857D01*
X147670387Y-128582714D02*
X148178387Y-128582714D01*
X147851815Y-129344714D01*
X148468672Y-128945571D02*
X149049244Y-128945571D01*
X149049244Y-129163285D02*
X148468672Y-129163285D01*
X149774958Y-128582714D02*
X149412101Y-128582714D01*
X149375815Y-128945571D01*
X149412101Y-128909285D01*
X149484672Y-128873000D01*
X149666101Y-128873000D01*
X149738672Y-128909285D01*
X149774958Y-128945571D01*
X149811244Y-129018142D01*
X149811244Y-129199571D01*
X149774958Y-129272142D01*
X149738672Y-129308428D01*
X149666101Y-129344714D01*
X149484672Y-129344714D01*
X149412101Y-129308428D01*
X149375815Y-129272142D01*
X150028958Y-128582714D02*
X150282958Y-129344714D01*
X150536958Y-128582714D01*
X147416387Y-130571534D02*
X147162387Y-130208677D01*
X146980958Y-130571534D02*
X146980958Y-129809534D01*
X147271244Y-129809534D01*
X147343815Y-129845820D01*
X147380101Y-129882105D01*
X147416387Y-129954677D01*
X147416387Y-130063534D01*
X147380101Y-130136105D01*
X147343815Y-130172391D01*
X147271244Y-130208677D01*
X146980958Y-130208677D01*
X147851815Y-130136105D02*
X147779244Y-130099820D01*
X147742958Y-130063534D01*
X147706672Y-129990962D01*
X147706672Y-129954677D01*
X147742958Y-129882105D01*
X147779244Y-129845820D01*
X147851815Y-129809534D01*
X147996958Y-129809534D01*
X148069530Y-129845820D01*
X148105815Y-129882105D01*
X148142101Y-129954677D01*
X148142101Y-129990962D01*
X148105815Y-130063534D01*
X148069530Y-130099820D01*
X147996958Y-130136105D01*
X147851815Y-130136105D01*
X147779244Y-130172391D01*
X147742958Y-130208677D01*
X147706672Y-130281248D01*
X147706672Y-130426391D01*
X147742958Y-130498962D01*
X147779244Y-130535248D01*
X147851815Y-130571534D01*
X147996958Y-130571534D01*
X148069530Y-130535248D01*
X148105815Y-130498962D01*
X148142101Y-130426391D01*
X148142101Y-130281248D01*
X148105815Y-130208677D01*
X148069530Y-130172391D01*
X147996958Y-130136105D01*
X148468672Y-130172391D02*
X149049244Y-130172391D01*
X149049244Y-130390105D02*
X148468672Y-130390105D01*
X149339530Y-129809534D02*
X149811244Y-129809534D01*
X149557244Y-130099820D01*
X149666101Y-130099820D01*
X149738672Y-130136105D01*
X149774958Y-130172391D01*
X149811244Y-130244962D01*
X149811244Y-130426391D01*
X149774958Y-130498962D01*
X149738672Y-130535248D01*
X149666101Y-130571534D01*
X149448387Y-130571534D01*
X149375815Y-130535248D01*
X149339530Y-130498962D01*
X150028958Y-129809534D02*
X150282958Y-130571534D01*
X150536958Y-129809534D01*
X150718387Y-129809534D02*
X151190101Y-129809534D01*
X150936101Y-130099820D01*
X151044958Y-130099820D01*
X151117530Y-130136105D01*
X151153815Y-130172391D01*
X151190101Y-130244962D01*
X151190101Y-130426391D01*
X151153815Y-130498962D01*
X151117530Y-130535248D01*
X151044958Y-130571534D01*
X150827244Y-130571534D01*
X150754672Y-130535248D01*
X150718387Y-130498962D01*
D11*
%TO.C,C21*%
X152272142Y-118567102D02*
X152308428Y-118603388D01*
X152344714Y-118712245D01*
X152344714Y-118784817D01*
X152308428Y-118893674D01*
X152235857Y-118966245D01*
X152163285Y-119002531D01*
X152018142Y-119038817D01*
X151909285Y-119038817D01*
X151764142Y-119002531D01*
X151691571Y-118966245D01*
X151619000Y-118893674D01*
X151582714Y-118784817D01*
X151582714Y-118712245D01*
X151619000Y-118603388D01*
X151655285Y-118567102D01*
X151655285Y-118276817D02*
X151619000Y-118240531D01*
X151582714Y-118167960D01*
X151582714Y-117986531D01*
X151619000Y-117913960D01*
X151655285Y-117877674D01*
X151727857Y-117841388D01*
X151800428Y-117841388D01*
X151909285Y-117877674D01*
X152344714Y-118313102D01*
X152344714Y-117841388D01*
X152344714Y-117115674D02*
X152344714Y-117551102D01*
X152344714Y-117333388D02*
X151582714Y-117333388D01*
X151691571Y-117405960D01*
X151764142Y-117478531D01*
X151800428Y-117551102D01*
%TO.C,C24*%
X157510142Y-108522142D02*
X157473857Y-108558428D01*
X157365000Y-108594714D01*
X157292428Y-108594714D01*
X157183571Y-108558428D01*
X157111000Y-108485857D01*
X157074714Y-108413285D01*
X157038428Y-108268142D01*
X157038428Y-108159285D01*
X157074714Y-108014142D01*
X157111000Y-107941571D01*
X157183571Y-107869000D01*
X157292428Y-107832714D01*
X157365000Y-107832714D01*
X157473857Y-107869000D01*
X157510142Y-107905285D01*
X157800428Y-107905285D02*
X157836714Y-107869000D01*
X157909285Y-107832714D01*
X158090714Y-107832714D01*
X158163285Y-107869000D01*
X158199571Y-107905285D01*
X158235857Y-107977857D01*
X158235857Y-108050428D01*
X158199571Y-108159285D01*
X157764142Y-108594714D01*
X158235857Y-108594714D01*
X158889000Y-108086714D02*
X158889000Y-108594714D01*
X158707571Y-107796428D02*
X158526142Y-108340714D01*
X158997857Y-108340714D01*
%TO.C,Q1*%
X152427428Y-87167285D02*
X152354857Y-87131000D01*
X152282285Y-87058428D01*
X152173428Y-86949571D01*
X152100857Y-86913285D01*
X152028285Y-86913285D01*
X152064571Y-87094714D02*
X151992000Y-87058428D01*
X151919428Y-86985857D01*
X151883142Y-86840714D01*
X151883142Y-86586714D01*
X151919428Y-86441571D01*
X151992000Y-86369000D01*
X152064571Y-86332714D01*
X152209714Y-86332714D01*
X152282285Y-86369000D01*
X152354857Y-86441571D01*
X152391142Y-86586714D01*
X152391142Y-86840714D01*
X152354857Y-86985857D01*
X152282285Y-87058428D01*
X152209714Y-87094714D01*
X152064571Y-87094714D01*
X153116857Y-87094714D02*
X152681428Y-87094714D01*
X152899142Y-87094714D02*
X152899142Y-86332714D01*
X152826571Y-86441571D01*
X152754000Y-86514142D01*
X152681428Y-86550428D01*
D10*
%TO.C,X1*%
X140682714Y-95926857D02*
X141444714Y-95418857D01*
X140682714Y-95418857D02*
X141444714Y-95926857D01*
X141444714Y-94729428D02*
X141444714Y-95164857D01*
X141444714Y-94947142D02*
X140682714Y-94947142D01*
X140791571Y-95019714D01*
X140864142Y-95092285D01*
X140900428Y-95164857D01*
D11*
%TO.C,C8*%
X139977763Y-81942631D02*
X139926447Y-81942631D01*
X139823816Y-81891315D01*
X139772500Y-81840000D01*
X139721184Y-81737368D01*
X139721184Y-81634737D01*
X139746842Y-81557763D01*
X139823816Y-81429474D01*
X139900789Y-81352500D01*
X140029079Y-81275526D01*
X140106052Y-81249868D01*
X140208684Y-81249868D01*
X140311315Y-81301184D01*
X140362631Y-81352500D01*
X140413947Y-81455131D01*
X140413947Y-81506447D01*
X140542236Y-81993947D02*
X140516578Y-81916973D01*
X140516578Y-81865657D01*
X140542236Y-81788684D01*
X140567894Y-81763026D01*
X140644868Y-81737368D01*
X140696183Y-81737368D01*
X140773157Y-81763026D01*
X140875788Y-81865657D01*
X140901446Y-81942631D01*
X140901446Y-81993947D01*
X140875788Y-82070920D01*
X140850131Y-82096578D01*
X140773157Y-82122236D01*
X140721841Y-82122236D01*
X140644868Y-82096578D01*
X140542236Y-81993947D01*
X140465262Y-81968289D01*
X140413947Y-81968289D01*
X140336973Y-81993947D01*
X140234342Y-82096578D01*
X140208684Y-82173552D01*
X140208684Y-82224868D01*
X140234342Y-82301841D01*
X140336973Y-82404473D01*
X140413947Y-82430131D01*
X140465262Y-82430131D01*
X140542236Y-82404473D01*
X140644868Y-82301841D01*
X140670525Y-82224868D01*
X140670525Y-82173552D01*
X140644868Y-82096578D01*
%TO.C,R23*%
X163510142Y-126844714D02*
X163256142Y-126481857D01*
X163074714Y-126844714D02*
X163074714Y-126082714D01*
X163365000Y-126082714D01*
X163437571Y-126119000D01*
X163473857Y-126155285D01*
X163510142Y-126227857D01*
X163510142Y-126336714D01*
X163473857Y-126409285D01*
X163437571Y-126445571D01*
X163365000Y-126481857D01*
X163074714Y-126481857D01*
X163800428Y-126155285D02*
X163836714Y-126119000D01*
X163909285Y-126082714D01*
X164090714Y-126082714D01*
X164163285Y-126119000D01*
X164199571Y-126155285D01*
X164235857Y-126227857D01*
X164235857Y-126300428D01*
X164199571Y-126409285D01*
X163764142Y-126844714D01*
X164235857Y-126844714D01*
X164489857Y-126082714D02*
X164961571Y-126082714D01*
X164707571Y-126373000D01*
X164816428Y-126373000D01*
X164889000Y-126409285D01*
X164925285Y-126445571D01*
X164961571Y-126518142D01*
X164961571Y-126699571D01*
X164925285Y-126772142D01*
X164889000Y-126808428D01*
X164816428Y-126844714D01*
X164598714Y-126844714D01*
X164526142Y-126808428D01*
X164489857Y-126772142D01*
%TO.C,R19*%
X143594714Y-127412611D02*
X143231857Y-127666611D01*
X143594714Y-127848040D02*
X142832714Y-127848040D01*
X142832714Y-127557754D01*
X142869000Y-127485182D01*
X142905285Y-127448897D01*
X142977857Y-127412611D01*
X143086714Y-127412611D01*
X143159285Y-127448897D01*
X143195571Y-127485182D01*
X143231857Y-127557754D01*
X143231857Y-127848040D01*
X143594714Y-126686897D02*
X143594714Y-127122325D01*
X143594714Y-126904611D02*
X142832714Y-126904611D01*
X142941571Y-126977182D01*
X143014142Y-127049754D01*
X143050428Y-127122325D01*
X143594714Y-126324040D02*
X143594714Y-126178897D01*
X143558428Y-126106325D01*
X143522142Y-126070040D01*
X143413285Y-125997468D01*
X143268142Y-125961182D01*
X142977857Y-125961182D01*
X142905285Y-125997468D01*
X142869000Y-126033754D01*
X142832714Y-126106325D01*
X142832714Y-126251468D01*
X142869000Y-126324040D01*
X142905285Y-126360325D01*
X142977857Y-126396611D01*
X143159285Y-126396611D01*
X143231857Y-126360325D01*
X143268142Y-126324040D01*
X143304428Y-126251468D01*
X143304428Y-126106325D01*
X143268142Y-126033754D01*
X143231857Y-125997468D01*
X143159285Y-125961182D01*
%TO.C,C3*%
X145652142Y-99397000D02*
X145688428Y-99433285D01*
X145724714Y-99542142D01*
X145724714Y-99614714D01*
X145688428Y-99723571D01*
X145615857Y-99796142D01*
X145543285Y-99832428D01*
X145398142Y-99868714D01*
X145289285Y-99868714D01*
X145144142Y-99832428D01*
X145071571Y-99796142D01*
X144999000Y-99723571D01*
X144962714Y-99614714D01*
X144962714Y-99542142D01*
X144999000Y-99433285D01*
X145035285Y-99397000D01*
X144962714Y-99143000D02*
X144962714Y-98671285D01*
X145253000Y-98925285D01*
X145253000Y-98816428D01*
X145289285Y-98743857D01*
X145325571Y-98707571D01*
X145398142Y-98671285D01*
X145579571Y-98671285D01*
X145652142Y-98707571D01*
X145688428Y-98743857D01*
X145724714Y-98816428D01*
X145724714Y-99034142D01*
X145688428Y-99106714D01*
X145652142Y-99143000D01*
%TO.C,R3*%
X143594714Y-105377000D02*
X143231857Y-105631000D01*
X143594714Y-105812428D02*
X142832714Y-105812428D01*
X142832714Y-105522142D01*
X142869000Y-105449571D01*
X142905285Y-105413285D01*
X142977857Y-105377000D01*
X143086714Y-105377000D01*
X143159285Y-105413285D01*
X143195571Y-105449571D01*
X143231857Y-105522142D01*
X143231857Y-105812428D01*
X142832714Y-105123000D02*
X142832714Y-104651285D01*
X143123000Y-104905285D01*
X143123000Y-104796428D01*
X143159285Y-104723857D01*
X143195571Y-104687571D01*
X143268142Y-104651285D01*
X143449571Y-104651285D01*
X143522142Y-104687571D01*
X143558428Y-104723857D01*
X143594714Y-104796428D01*
X143594714Y-105014142D01*
X143558428Y-105086714D01*
X143522142Y-105123000D01*
%TO.C,R6*%
X148344714Y-89127000D02*
X147981857Y-89381000D01*
X148344714Y-89562428D02*
X147582714Y-89562428D01*
X147582714Y-89272142D01*
X147619000Y-89199571D01*
X147655285Y-89163285D01*
X147727857Y-89127000D01*
X147836714Y-89127000D01*
X147909285Y-89163285D01*
X147945571Y-89199571D01*
X147981857Y-89272142D01*
X147981857Y-89562428D01*
X147582714Y-88473857D02*
X147582714Y-88619000D01*
X147619000Y-88691571D01*
X147655285Y-88727857D01*
X147764142Y-88800428D01*
X147909285Y-88836714D01*
X148199571Y-88836714D01*
X148272142Y-88800428D01*
X148308428Y-88764142D01*
X148344714Y-88691571D01*
X148344714Y-88546428D01*
X148308428Y-88473857D01*
X148272142Y-88437571D01*
X148199571Y-88401285D01*
X148018142Y-88401285D01*
X147945571Y-88437571D01*
X147909285Y-88473857D01*
X147873000Y-88546428D01*
X147873000Y-88691571D01*
X147909285Y-88764142D01*
X147945571Y-88800428D01*
X148018142Y-88836714D01*
%TO.C,C7*%
X133842631Y-82172236D02*
X133842631Y-82223552D01*
X133791315Y-82326183D01*
X133739999Y-82377499D01*
X133637368Y-82428815D01*
X133534737Y-82428815D01*
X133457763Y-82403157D01*
X133329474Y-82326183D01*
X133252500Y-82249210D01*
X133175526Y-82120920D01*
X133149868Y-82043947D01*
X133149868Y-81941315D01*
X133201184Y-81838684D01*
X133252500Y-81787368D01*
X133355131Y-81736052D01*
X133406447Y-81736052D01*
X133534737Y-81505131D02*
X133893947Y-81145921D01*
X134201841Y-81915657D01*
%TO.C,L1*%
X134916447Y-83653947D02*
X134659868Y-83397368D01*
X135198684Y-82858553D01*
X135378289Y-84115788D02*
X135070394Y-83807894D01*
X135224342Y-83961841D02*
X135763157Y-83423026D01*
X135634868Y-83448684D01*
X135532236Y-83448684D01*
X135455262Y-83423026D01*
%TO.C,C2*%
X141223000Y-93272142D02*
X141186714Y-93308428D01*
X141077857Y-93344714D01*
X141005285Y-93344714D01*
X140896428Y-93308428D01*
X140823857Y-93235857D01*
X140787571Y-93163285D01*
X140751285Y-93018142D01*
X140751285Y-92909285D01*
X140787571Y-92764142D01*
X140823857Y-92691571D01*
X140896428Y-92619000D01*
X141005285Y-92582714D01*
X141077857Y-92582714D01*
X141186714Y-92619000D01*
X141223000Y-92655285D01*
X141513285Y-92655285D02*
X141549571Y-92619000D01*
X141622142Y-92582714D01*
X141803571Y-92582714D01*
X141876142Y-92619000D01*
X141912428Y-92655285D01*
X141948714Y-92727857D01*
X141948714Y-92800428D01*
X141912428Y-92909285D01*
X141477000Y-93344714D01*
X141948714Y-93344714D01*
%TO.C,C6*%
X137722897Y-90842142D02*
X137686611Y-90878428D01*
X137577754Y-90914714D01*
X137505182Y-90914714D01*
X137396325Y-90878428D01*
X137323754Y-90805857D01*
X137287468Y-90733285D01*
X137251182Y-90588142D01*
X137251182Y-90479285D01*
X137287468Y-90334142D01*
X137323754Y-90261571D01*
X137396325Y-90189000D01*
X137505182Y-90152714D01*
X137577754Y-90152714D01*
X137686611Y-90189000D01*
X137722897Y-90225285D01*
X138376040Y-90152714D02*
X138230897Y-90152714D01*
X138158325Y-90189000D01*
X138122040Y-90225285D01*
X138049468Y-90334142D01*
X138013182Y-90479285D01*
X138013182Y-90769571D01*
X138049468Y-90842142D01*
X138085754Y-90878428D01*
X138158325Y-90914714D01*
X138303468Y-90914714D01*
X138376040Y-90878428D01*
X138412325Y-90842142D01*
X138448611Y-90769571D01*
X138448611Y-90588142D01*
X138412325Y-90515571D01*
X138376040Y-90479285D01*
X138303468Y-90443000D01*
X138158325Y-90443000D01*
X138085754Y-90479285D01*
X138049468Y-90515571D01*
X138013182Y-90588142D01*
%TO.C,L4*%
X152073000Y-128164714D02*
X151710142Y-128164714D01*
X151710142Y-127402714D01*
X152653571Y-127656714D02*
X152653571Y-128164714D01*
X152472142Y-127366428D02*
X152290714Y-127910714D01*
X152762428Y-127910714D01*
%TO.C,R27*%
X145344714Y-127412611D02*
X144981857Y-127666611D01*
X145344714Y-127848040D02*
X144582714Y-127848040D01*
X144582714Y-127557754D01*
X144619000Y-127485182D01*
X144655285Y-127448897D01*
X144727857Y-127412611D01*
X144836714Y-127412611D01*
X144909285Y-127448897D01*
X144945571Y-127485182D01*
X144981857Y-127557754D01*
X144981857Y-127848040D01*
X144655285Y-127122325D02*
X144619000Y-127086040D01*
X144582714Y-127013468D01*
X144582714Y-126832040D01*
X144619000Y-126759468D01*
X144655285Y-126723182D01*
X144727857Y-126686897D01*
X144800428Y-126686897D01*
X144909285Y-126723182D01*
X145344714Y-127158611D01*
X145344714Y-126686897D01*
X144582714Y-126432897D02*
X144582714Y-125924897D01*
X145344714Y-126251468D01*
%TO.C,R8*%
X141623000Y-128344714D02*
X141369000Y-127981857D01*
X141187571Y-128344714D02*
X141187571Y-127582714D01*
X141477857Y-127582714D01*
X141550428Y-127619000D01*
X141586714Y-127655285D01*
X141623000Y-127727857D01*
X141623000Y-127836714D01*
X141586714Y-127909285D01*
X141550428Y-127945571D01*
X141477857Y-127981857D01*
X141187571Y-127981857D01*
X142058428Y-127909285D02*
X141985857Y-127873000D01*
X141949571Y-127836714D01*
X141913285Y-127764142D01*
X141913285Y-127727857D01*
X141949571Y-127655285D01*
X141985857Y-127619000D01*
X142058428Y-127582714D01*
X142203571Y-127582714D01*
X142276142Y-127619000D01*
X142312428Y-127655285D01*
X142348714Y-127727857D01*
X142348714Y-127764142D01*
X142312428Y-127836714D01*
X142276142Y-127873000D01*
X142203571Y-127909285D01*
X142058428Y-127909285D01*
X141985857Y-127945571D01*
X141949571Y-127981857D01*
X141913285Y-128054428D01*
X141913285Y-128199571D01*
X141949571Y-128272142D01*
X141985857Y-128308428D01*
X142058428Y-128344714D01*
X142203571Y-128344714D01*
X142276142Y-128308428D01*
X142312428Y-128272142D01*
X142348714Y-128199571D01*
X142348714Y-128054428D01*
X142312428Y-127981857D01*
X142276142Y-127945571D01*
X142203571Y-127909285D01*
%TO.C,R29*%
X167594714Y-86989857D02*
X167231857Y-87243857D01*
X167594714Y-87425285D02*
X166832714Y-87425285D01*
X166832714Y-87135000D01*
X166869000Y-87062428D01*
X166905285Y-87026142D01*
X166977857Y-86989857D01*
X167086714Y-86989857D01*
X167159285Y-87026142D01*
X167195571Y-87062428D01*
X167231857Y-87135000D01*
X167231857Y-87425285D01*
X166905285Y-86699571D02*
X166869000Y-86663285D01*
X166832714Y-86590714D01*
X166832714Y-86409285D01*
X166869000Y-86336714D01*
X166905285Y-86300428D01*
X166977857Y-86264142D01*
X167050428Y-86264142D01*
X167159285Y-86300428D01*
X167594714Y-86735857D01*
X167594714Y-86264142D01*
X167594714Y-85901285D02*
X167594714Y-85756142D01*
X167558428Y-85683571D01*
X167522142Y-85647285D01*
X167413285Y-85574714D01*
X167268142Y-85538428D01*
X166977857Y-85538428D01*
X166905285Y-85574714D01*
X166869000Y-85611000D01*
X166832714Y-85683571D01*
X166832714Y-85828714D01*
X166869000Y-85901285D01*
X166905285Y-85937571D01*
X166977857Y-85973857D01*
X167159285Y-85973857D01*
X167231857Y-85937571D01*
X167268142Y-85901285D01*
X167304428Y-85828714D01*
X167304428Y-85683571D01*
X167268142Y-85611000D01*
X167231857Y-85574714D01*
X167159285Y-85538428D01*
%TO.C,R2*%
X143514714Y-89137000D02*
X143151857Y-89391000D01*
X143514714Y-89572428D02*
X142752714Y-89572428D01*
X142752714Y-89282142D01*
X142789000Y-89209571D01*
X142825285Y-89173285D01*
X142897857Y-89137000D01*
X143006714Y-89137000D01*
X143079285Y-89173285D01*
X143115571Y-89209571D01*
X143151857Y-89282142D01*
X143151857Y-89572428D01*
X142825285Y-88846714D02*
X142789000Y-88810428D01*
X142752714Y-88737857D01*
X142752714Y-88556428D01*
X142789000Y-88483857D01*
X142825285Y-88447571D01*
X142897857Y-88411285D01*
X142970428Y-88411285D01*
X143079285Y-88447571D01*
X143514714Y-88883000D01*
X143514714Y-88411285D01*
%TO.C,R21*%
X150100142Y-112104714D02*
X149846142Y-111741857D01*
X149664714Y-112104714D02*
X149664714Y-111342714D01*
X149955000Y-111342714D01*
X150027571Y-111379000D01*
X150063857Y-111415285D01*
X150100142Y-111487857D01*
X150100142Y-111596714D01*
X150063857Y-111669285D01*
X150027571Y-111705571D01*
X149955000Y-111741857D01*
X149664714Y-111741857D01*
X150390428Y-111415285D02*
X150426714Y-111379000D01*
X150499285Y-111342714D01*
X150680714Y-111342714D01*
X150753285Y-111379000D01*
X150789571Y-111415285D01*
X150825857Y-111487857D01*
X150825857Y-111560428D01*
X150789571Y-111669285D01*
X150354142Y-112104714D01*
X150825857Y-112104714D01*
X151551571Y-112104714D02*
X151116142Y-112104714D01*
X151333857Y-112104714D02*
X151333857Y-111342714D01*
X151261285Y-111451571D01*
X151188714Y-111524142D01*
X151116142Y-111560428D01*
%TO.C,C27*%
X147772142Y-126489857D02*
X147808428Y-126526142D01*
X147844714Y-126635000D01*
X147844714Y-126707571D01*
X147808428Y-126816428D01*
X147735857Y-126889000D01*
X147663285Y-126925285D01*
X147518142Y-126961571D01*
X147409285Y-126961571D01*
X147264142Y-126925285D01*
X147191571Y-126889000D01*
X147119000Y-126816428D01*
X147082714Y-126707571D01*
X147082714Y-126635000D01*
X147119000Y-126526142D01*
X147155285Y-126489857D01*
X147155285Y-126199571D02*
X147119000Y-126163285D01*
X147082714Y-126090714D01*
X147082714Y-125909285D01*
X147119000Y-125836714D01*
X147155285Y-125800428D01*
X147227857Y-125764142D01*
X147300428Y-125764142D01*
X147409285Y-125800428D01*
X147844714Y-126235857D01*
X147844714Y-125764142D01*
X147082714Y-125510142D02*
X147082714Y-125002142D01*
X147844714Y-125328714D01*
%TO.C,R5*%
X154844714Y-86627000D02*
X154481857Y-86881000D01*
X154844714Y-87062428D02*
X154082714Y-87062428D01*
X154082714Y-86772142D01*
X154119000Y-86699571D01*
X154155285Y-86663285D01*
X154227857Y-86627000D01*
X154336714Y-86627000D01*
X154409285Y-86663285D01*
X154445571Y-86699571D01*
X154481857Y-86772142D01*
X154481857Y-87062428D01*
X154082714Y-85937571D02*
X154082714Y-86300428D01*
X154445571Y-86336714D01*
X154409285Y-86300428D01*
X154373000Y-86227857D01*
X154373000Y-86046428D01*
X154409285Y-85973857D01*
X154445571Y-85937571D01*
X154518142Y-85901285D01*
X154699571Y-85901285D01*
X154772142Y-85937571D01*
X154808428Y-85973857D01*
X154844714Y-86046428D01*
X154844714Y-86227857D01*
X154808428Y-86300428D01*
X154772142Y-86336714D01*
%TO.C,R28*%
X134694714Y-113739857D02*
X134331857Y-113993857D01*
X134694714Y-114175285D02*
X133932714Y-114175285D01*
X133932714Y-113885000D01*
X133969000Y-113812428D01*
X134005285Y-113776142D01*
X134077857Y-113739857D01*
X134186714Y-113739857D01*
X134259285Y-113776142D01*
X134295571Y-113812428D01*
X134331857Y-113885000D01*
X134331857Y-114175285D01*
X134005285Y-113449571D02*
X133969000Y-113413285D01*
X133932714Y-113340714D01*
X133932714Y-113159285D01*
X133969000Y-113086714D01*
X134005285Y-113050428D01*
X134077857Y-113014142D01*
X134150428Y-113014142D01*
X134259285Y-113050428D01*
X134694714Y-113485857D01*
X134694714Y-113014142D01*
X134259285Y-112578714D02*
X134223000Y-112651285D01*
X134186714Y-112687571D01*
X134114142Y-112723857D01*
X134077857Y-112723857D01*
X134005285Y-112687571D01*
X133969000Y-112651285D01*
X133932714Y-112578714D01*
X133932714Y-112433571D01*
X133969000Y-112361000D01*
X134005285Y-112324714D01*
X134077857Y-112288428D01*
X134114142Y-112288428D01*
X134186714Y-112324714D01*
X134223000Y-112361000D01*
X134259285Y-112433571D01*
X134259285Y-112578714D01*
X134295571Y-112651285D01*
X134331857Y-112687571D01*
X134404428Y-112723857D01*
X134549571Y-112723857D01*
X134622142Y-112687571D01*
X134658428Y-112651285D01*
X134694714Y-112578714D01*
X134694714Y-112433571D01*
X134658428Y-112361000D01*
X134622142Y-112324714D01*
X134549571Y-112288428D01*
X134404428Y-112288428D01*
X134331857Y-112324714D01*
X134295571Y-112361000D01*
X134259285Y-112433571D01*
%TO.C,C23*%
X149022142Y-126489857D02*
X149058428Y-126526142D01*
X149094714Y-126635000D01*
X149094714Y-126707571D01*
X149058428Y-126816428D01*
X148985857Y-126889000D01*
X148913285Y-126925285D01*
X148768142Y-126961571D01*
X148659285Y-126961571D01*
X148514142Y-126925285D01*
X148441571Y-126889000D01*
X148369000Y-126816428D01*
X148332714Y-126707571D01*
X148332714Y-126635000D01*
X148369000Y-126526142D01*
X148405285Y-126489857D01*
X148405285Y-126199571D02*
X148369000Y-126163285D01*
X148332714Y-126090714D01*
X148332714Y-125909285D01*
X148369000Y-125836714D01*
X148405285Y-125800428D01*
X148477857Y-125764142D01*
X148550428Y-125764142D01*
X148659285Y-125800428D01*
X149094714Y-126235857D01*
X149094714Y-125764142D01*
X148332714Y-125510142D02*
X148332714Y-125038428D01*
X148623000Y-125292428D01*
X148623000Y-125183571D01*
X148659285Y-125111000D01*
X148695571Y-125074714D01*
X148768142Y-125038428D01*
X148949571Y-125038428D01*
X149022142Y-125074714D01*
X149058428Y-125111000D01*
X149094714Y-125183571D01*
X149094714Y-125401285D01*
X149058428Y-125473857D01*
X149022142Y-125510142D01*
%TO.C,R4*%
X130783000Y-100594714D02*
X130529000Y-100231857D01*
X130347571Y-100594714D02*
X130347571Y-99832714D01*
X130637857Y-99832714D01*
X130710428Y-99869000D01*
X130746714Y-99905285D01*
X130783000Y-99977857D01*
X130783000Y-100086714D01*
X130746714Y-100159285D01*
X130710428Y-100195571D01*
X130637857Y-100231857D01*
X130347571Y-100231857D01*
X131436142Y-100086714D02*
X131436142Y-100594714D01*
X131254714Y-99796428D02*
X131073285Y-100340714D01*
X131545000Y-100340714D01*
%TO.C,R24*%
X163510142Y-108594714D02*
X163256142Y-108231857D01*
X163074714Y-108594714D02*
X163074714Y-107832714D01*
X163365000Y-107832714D01*
X163437571Y-107869000D01*
X163473857Y-107905285D01*
X163510142Y-107977857D01*
X163510142Y-108086714D01*
X163473857Y-108159285D01*
X163437571Y-108195571D01*
X163365000Y-108231857D01*
X163074714Y-108231857D01*
X163800428Y-107905285D02*
X163836714Y-107869000D01*
X163909285Y-107832714D01*
X164090714Y-107832714D01*
X164163285Y-107869000D01*
X164199571Y-107905285D01*
X164235857Y-107977857D01*
X164235857Y-108050428D01*
X164199571Y-108159285D01*
X163764142Y-108594714D01*
X164235857Y-108594714D01*
X164889000Y-108086714D02*
X164889000Y-108594714D01*
X164707571Y-107796428D02*
X164526142Y-108340714D01*
X164997857Y-108340714D01*
%TO.C,A2*%
X126177000Y-82544285D02*
X126177000Y-82181428D01*
X126394714Y-82616857D02*
X125632714Y-82362857D01*
X126394714Y-82108857D01*
X125705285Y-81891142D02*
X125669000Y-81854857D01*
X125632714Y-81782285D01*
X125632714Y-81600857D01*
X125669000Y-81528285D01*
X125705285Y-81492000D01*
X125777857Y-81455714D01*
X125850428Y-81455714D01*
X125959285Y-81492000D01*
X126394714Y-81927428D01*
X126394714Y-81455714D01*
%TO.C,U3*%
X150099428Y-114702714D02*
X150099428Y-115319571D01*
X150135714Y-115392142D01*
X150172000Y-115428428D01*
X150244571Y-115464714D01*
X150389714Y-115464714D01*
X150462285Y-115428428D01*
X150498571Y-115392142D01*
X150534857Y-115319571D01*
X150534857Y-114702714D01*
X150825142Y-114702714D02*
X151296857Y-114702714D01*
X151042857Y-114993000D01*
X151151714Y-114993000D01*
X151224285Y-115029285D01*
X151260571Y-115065571D01*
X151296857Y-115138142D01*
X151296857Y-115319571D01*
X151260571Y-115392142D01*
X151224285Y-115428428D01*
X151151714Y-115464714D01*
X150934000Y-115464714D01*
X150861428Y-115428428D01*
X150825142Y-115392142D01*
%TO.C,L5*%
X129133000Y-116394714D02*
X128770142Y-116394714D01*
X128770142Y-115632714D01*
X129749857Y-115632714D02*
X129387000Y-115632714D01*
X129350714Y-115995571D01*
X129387000Y-115959285D01*
X129459571Y-115923000D01*
X129641000Y-115923000D01*
X129713571Y-115959285D01*
X129749857Y-115995571D01*
X129786142Y-116068142D01*
X129786142Y-116249571D01*
X129749857Y-116322142D01*
X129713571Y-116358428D01*
X129641000Y-116394714D01*
X129459571Y-116394714D01*
X129387000Y-116358428D01*
X129350714Y-116322142D01*
%TO.C,C26*%
X142260142Y-118142142D02*
X142223857Y-118178428D01*
X142115000Y-118214714D01*
X142042428Y-118214714D01*
X141933571Y-118178428D01*
X141861000Y-118105857D01*
X141824714Y-118033285D01*
X141788428Y-117888142D01*
X141788428Y-117779285D01*
X141824714Y-117634142D01*
X141861000Y-117561571D01*
X141933571Y-117489000D01*
X142042428Y-117452714D01*
X142115000Y-117452714D01*
X142223857Y-117489000D01*
X142260142Y-117525285D01*
X142550428Y-117525285D02*
X142586714Y-117489000D01*
X142659285Y-117452714D01*
X142840714Y-117452714D01*
X142913285Y-117489000D01*
X142949571Y-117525285D01*
X142985857Y-117597857D01*
X142985857Y-117670428D01*
X142949571Y-117779285D01*
X142514142Y-118214714D01*
X142985857Y-118214714D01*
X143639000Y-117452714D02*
X143493857Y-117452714D01*
X143421285Y-117489000D01*
X143385000Y-117525285D01*
X143312428Y-117634142D01*
X143276142Y-117779285D01*
X143276142Y-118069571D01*
X143312428Y-118142142D01*
X143348714Y-118178428D01*
X143421285Y-118214714D01*
X143566428Y-118214714D01*
X143639000Y-118178428D01*
X143675285Y-118142142D01*
X143711571Y-118069571D01*
X143711571Y-117888142D01*
X143675285Y-117815571D01*
X143639000Y-117779285D01*
X143566428Y-117743000D01*
X143421285Y-117743000D01*
X143348714Y-117779285D01*
X143312428Y-117815571D01*
X143276142Y-117888142D01*
D10*
%TO.C,X3*%
X139702714Y-116546857D02*
X140464714Y-116038857D01*
X139702714Y-116038857D02*
X140464714Y-116546857D01*
X139702714Y-115821142D02*
X139702714Y-115349428D01*
X139993000Y-115603428D01*
X139993000Y-115494571D01*
X140029285Y-115422000D01*
X140065571Y-115385714D01*
X140138142Y-115349428D01*
X140319571Y-115349428D01*
X140392142Y-115385714D01*
X140428428Y-115422000D01*
X140464714Y-115494571D01*
X140464714Y-115712285D01*
X140428428Y-115784857D01*
X140392142Y-115821142D01*
%TO.C,U5*%
X134852714Y-122830571D02*
X135469571Y-122830571D01*
X135542142Y-122794285D01*
X135578428Y-122758000D01*
X135614714Y-122685428D01*
X135614714Y-122540285D01*
X135578428Y-122467714D01*
X135542142Y-122431428D01*
X135469571Y-122395142D01*
X134852714Y-122395142D01*
X134852714Y-121669428D02*
X134852714Y-122032285D01*
X135215571Y-122068571D01*
X135179285Y-122032285D01*
X135143000Y-121959714D01*
X135143000Y-121778285D01*
X135179285Y-121705714D01*
X135215571Y-121669428D01*
X135288142Y-121633142D01*
X135469571Y-121633142D01*
X135542142Y-121669428D01*
X135578428Y-121705714D01*
X135614714Y-121778285D01*
X135614714Y-121959714D01*
X135578428Y-122032285D01*
X135542142Y-122068571D01*
%TO.C,U6*%
X138352714Y-122830571D02*
X138969571Y-122830571D01*
X139042142Y-122794285D01*
X139078428Y-122758000D01*
X139114714Y-122685428D01*
X139114714Y-122540285D01*
X139078428Y-122467714D01*
X139042142Y-122431428D01*
X138969571Y-122395142D01*
X138352714Y-122395142D01*
X138352714Y-121705714D02*
X138352714Y-121850857D01*
X138389000Y-121923428D01*
X138425285Y-121959714D01*
X138534142Y-122032285D01*
X138679285Y-122068571D01*
X138969571Y-122068571D01*
X139042142Y-122032285D01*
X139078428Y-121996000D01*
X139114714Y-121923428D01*
X139114714Y-121778285D01*
X139078428Y-121705714D01*
X139042142Y-121669428D01*
X138969571Y-121633142D01*
X138788142Y-121633142D01*
X138715571Y-121669428D01*
X138679285Y-121705714D01*
X138643000Y-121778285D01*
X138643000Y-121923428D01*
X138679285Y-121996000D01*
X138715571Y-122032285D01*
X138788142Y-122068571D01*
D11*
%TO.C,C5*%
X142132142Y-89127000D02*
X142168428Y-89163285D01*
X142204714Y-89272142D01*
X142204714Y-89344714D01*
X142168428Y-89453571D01*
X142095857Y-89526142D01*
X142023285Y-89562428D01*
X141878142Y-89598714D01*
X141769285Y-89598714D01*
X141624142Y-89562428D01*
X141551571Y-89526142D01*
X141479000Y-89453571D01*
X141442714Y-89344714D01*
X141442714Y-89272142D01*
X141479000Y-89163285D01*
X141515285Y-89127000D01*
X141442714Y-88437571D02*
X141442714Y-88800428D01*
X141805571Y-88836714D01*
X141769285Y-88800428D01*
X141733000Y-88727857D01*
X141733000Y-88546428D01*
X141769285Y-88473857D01*
X141805571Y-88437571D01*
X141878142Y-88401285D01*
X142059571Y-88401285D01*
X142132142Y-88437571D01*
X142168428Y-88473857D01*
X142204714Y-88546428D01*
X142204714Y-88727857D01*
X142168428Y-88800428D01*
X142132142Y-88836714D01*
%TO.C,C15*%
X142292142Y-102729857D02*
X142328428Y-102766142D01*
X142364714Y-102875000D01*
X142364714Y-102947571D01*
X142328428Y-103056428D01*
X142255857Y-103129000D01*
X142183285Y-103165285D01*
X142038142Y-103201571D01*
X141929285Y-103201571D01*
X141784142Y-103165285D01*
X141711571Y-103129000D01*
X141639000Y-103056428D01*
X141602714Y-102947571D01*
X141602714Y-102875000D01*
X141639000Y-102766142D01*
X141675285Y-102729857D01*
X142364714Y-102004142D02*
X142364714Y-102439571D01*
X142364714Y-102221857D02*
X141602714Y-102221857D01*
X141711571Y-102294428D01*
X141784142Y-102367000D01*
X141820428Y-102439571D01*
X141602714Y-101314714D02*
X141602714Y-101677571D01*
X141965571Y-101713857D01*
X141929285Y-101677571D01*
X141893000Y-101605000D01*
X141893000Y-101423571D01*
X141929285Y-101351000D01*
X141965571Y-101314714D01*
X142038142Y-101278428D01*
X142219571Y-101278428D01*
X142292142Y-101314714D01*
X142328428Y-101351000D01*
X142364714Y-101423571D01*
X142364714Y-101605000D01*
X142328428Y-101677571D01*
X142292142Y-101713857D01*
%TO.C,R10*%
X154094714Y-91589857D02*
X153731857Y-91843857D01*
X154094714Y-92025285D02*
X153332714Y-92025285D01*
X153332714Y-91735000D01*
X153369000Y-91662428D01*
X153405285Y-91626142D01*
X153477857Y-91589857D01*
X153586714Y-91589857D01*
X153659285Y-91626142D01*
X153695571Y-91662428D01*
X153731857Y-91735000D01*
X153731857Y-92025285D01*
X154094714Y-90864142D02*
X154094714Y-91299571D01*
X154094714Y-91081857D02*
X153332714Y-91081857D01*
X153441571Y-91154428D01*
X153514142Y-91227000D01*
X153550428Y-91299571D01*
X153332714Y-90392428D02*
X153332714Y-90319857D01*
X153369000Y-90247285D01*
X153405285Y-90211000D01*
X153477857Y-90174714D01*
X153623000Y-90138428D01*
X153804428Y-90138428D01*
X153949571Y-90174714D01*
X154022142Y-90211000D01*
X154058428Y-90247285D01*
X154094714Y-90319857D01*
X154094714Y-90392428D01*
X154058428Y-90465000D01*
X154022142Y-90501285D01*
X153949571Y-90537571D01*
X153804428Y-90573857D01*
X153623000Y-90573857D01*
X153477857Y-90537571D01*
X153405285Y-90501285D01*
X153369000Y-90465000D01*
X153332714Y-90392428D01*
%TO.C,C22*%
X151022142Y-118567102D02*
X151058428Y-118603388D01*
X151094714Y-118712245D01*
X151094714Y-118784817D01*
X151058428Y-118893674D01*
X150985857Y-118966245D01*
X150913285Y-119002531D01*
X150768142Y-119038817D01*
X150659285Y-119038817D01*
X150514142Y-119002531D01*
X150441571Y-118966245D01*
X150369000Y-118893674D01*
X150332714Y-118784817D01*
X150332714Y-118712245D01*
X150369000Y-118603388D01*
X150405285Y-118567102D01*
X150405285Y-118276817D02*
X150369000Y-118240531D01*
X150332714Y-118167960D01*
X150332714Y-117986531D01*
X150369000Y-117913960D01*
X150405285Y-117877674D01*
X150477857Y-117841388D01*
X150550428Y-117841388D01*
X150659285Y-117877674D01*
X151094714Y-118313102D01*
X151094714Y-117841388D01*
X150405285Y-117551102D02*
X150369000Y-117514817D01*
X150332714Y-117442245D01*
X150332714Y-117260817D01*
X150369000Y-117188245D01*
X150405285Y-117151960D01*
X150477857Y-117115674D01*
X150550428Y-117115674D01*
X150659285Y-117151960D01*
X151094714Y-117587388D01*
X151094714Y-117115674D01*
D10*
%TO.C,U4*%
X130639428Y-115602714D02*
X130639428Y-116219571D01*
X130675714Y-116292142D01*
X130712000Y-116328428D01*
X130784571Y-116364714D01*
X130929714Y-116364714D01*
X131002285Y-116328428D01*
X131038571Y-116292142D01*
X131074857Y-116219571D01*
X131074857Y-115602714D01*
X131764285Y-115856714D02*
X131764285Y-116364714D01*
X131582857Y-115566428D02*
X131401428Y-116110714D01*
X131873142Y-116110714D01*
D11*
%TO.C,P2*%
X147477571Y-91614714D02*
X147477571Y-90852714D01*
X147767857Y-90852714D01*
X147840428Y-90889000D01*
X147876714Y-90925285D01*
X147913000Y-90997857D01*
X147913000Y-91106714D01*
X147876714Y-91179285D01*
X147840428Y-91215571D01*
X147767857Y-91251857D01*
X147477571Y-91251857D01*
X148203285Y-90925285D02*
X148239571Y-90889000D01*
X148312142Y-90852714D01*
X148493571Y-90852714D01*
X148566142Y-90889000D01*
X148602428Y-90925285D01*
X148638714Y-90997857D01*
X148638714Y-91070428D01*
X148602428Y-91179285D01*
X148167000Y-91614714D01*
X148638714Y-91614714D01*
%TO.C,SW1*%
X150234000Y-107168428D02*
X150342857Y-107204714D01*
X150524285Y-107204714D01*
X150596857Y-107168428D01*
X150633142Y-107132142D01*
X150669428Y-107059571D01*
X150669428Y-106987000D01*
X150633142Y-106914428D01*
X150596857Y-106878142D01*
X150524285Y-106841857D01*
X150379142Y-106805571D01*
X150306571Y-106769285D01*
X150270285Y-106733000D01*
X150234000Y-106660428D01*
X150234000Y-106587857D01*
X150270285Y-106515285D01*
X150306571Y-106479000D01*
X150379142Y-106442714D01*
X150560571Y-106442714D01*
X150669428Y-106479000D01*
X150923428Y-106442714D02*
X151104857Y-107204714D01*
X151250000Y-106660428D01*
X151395142Y-107204714D01*
X151576571Y-106442714D01*
X152266000Y-107204714D02*
X151830571Y-107204714D01*
X152048285Y-107204714D02*
X152048285Y-106442714D01*
X151975714Y-106551571D01*
X151903142Y-106624142D01*
X151830571Y-106660428D01*
%TO.C,C25*%
X157510142Y-126772142D02*
X157473857Y-126808428D01*
X157365000Y-126844714D01*
X157292428Y-126844714D01*
X157183571Y-126808428D01*
X157111000Y-126735857D01*
X157074714Y-126663285D01*
X157038428Y-126518142D01*
X157038428Y-126409285D01*
X157074714Y-126264142D01*
X157111000Y-126191571D01*
X157183571Y-126119000D01*
X157292428Y-126082714D01*
X157365000Y-126082714D01*
X157473857Y-126119000D01*
X157510142Y-126155285D01*
X157800428Y-126155285D02*
X157836714Y-126119000D01*
X157909285Y-126082714D01*
X158090714Y-126082714D01*
X158163285Y-126119000D01*
X158199571Y-126155285D01*
X158235857Y-126227857D01*
X158235857Y-126300428D01*
X158199571Y-126409285D01*
X157764142Y-126844714D01*
X158235857Y-126844714D01*
X158925285Y-126082714D02*
X158562428Y-126082714D01*
X158526142Y-126445571D01*
X158562428Y-126409285D01*
X158635000Y-126373000D01*
X158816428Y-126373000D01*
X158889000Y-126409285D01*
X158925285Y-126445571D01*
X158961571Y-126518142D01*
X158961571Y-126699571D01*
X158925285Y-126772142D01*
X158889000Y-126808428D01*
X158816428Y-126844714D01*
X158635000Y-126844714D01*
X158562428Y-126808428D01*
X158526142Y-126772142D01*
%TO.C,C37*%
X150760142Y-98272142D02*
X150723857Y-98308428D01*
X150615000Y-98344714D01*
X150542428Y-98344714D01*
X150433571Y-98308428D01*
X150361000Y-98235857D01*
X150324714Y-98163285D01*
X150288428Y-98018142D01*
X150288428Y-97909285D01*
X150324714Y-97764142D01*
X150361000Y-97691571D01*
X150433571Y-97619000D01*
X150542428Y-97582714D01*
X150615000Y-97582714D01*
X150723857Y-97619000D01*
X150760142Y-97655285D01*
X151014142Y-97582714D02*
X151485857Y-97582714D01*
X151231857Y-97873000D01*
X151340714Y-97873000D01*
X151413285Y-97909285D01*
X151449571Y-97945571D01*
X151485857Y-98018142D01*
X151485857Y-98199571D01*
X151449571Y-98272142D01*
X151413285Y-98308428D01*
X151340714Y-98344714D01*
X151123000Y-98344714D01*
X151050428Y-98308428D01*
X151014142Y-98272142D01*
X151739857Y-97582714D02*
X152247857Y-97582714D01*
X151921285Y-98344714D01*
%TO.C,C4*%
X141012142Y-89107000D02*
X141048428Y-89143285D01*
X141084714Y-89252142D01*
X141084714Y-89324714D01*
X141048428Y-89433571D01*
X140975857Y-89506142D01*
X140903285Y-89542428D01*
X140758142Y-89578714D01*
X140649285Y-89578714D01*
X140504142Y-89542428D01*
X140431571Y-89506142D01*
X140359000Y-89433571D01*
X140322714Y-89324714D01*
X140322714Y-89252142D01*
X140359000Y-89143285D01*
X140395285Y-89107000D01*
X140576714Y-88453857D02*
X141084714Y-88453857D01*
X140286428Y-88635285D02*
X140830714Y-88816714D01*
X140830714Y-88345000D01*
D10*
%TO.C,U1*%
X131062714Y-95280571D02*
X131679571Y-95280571D01*
X131752142Y-95244285D01*
X131788428Y-95208000D01*
X131824714Y-95135428D01*
X131824714Y-94990285D01*
X131788428Y-94917714D01*
X131752142Y-94881428D01*
X131679571Y-94845142D01*
X131062714Y-94845142D01*
X131824714Y-94083142D02*
X131824714Y-94518571D01*
X131824714Y-94300857D02*
X131062714Y-94300857D01*
X131171571Y-94373428D01*
X131244142Y-94446000D01*
X131280428Y-94518571D01*
D11*
%TO.C,R22*%
X150160142Y-113594714D02*
X149906142Y-113231857D01*
X149724714Y-113594714D02*
X149724714Y-112832714D01*
X150015000Y-112832714D01*
X150087571Y-112869000D01*
X150123857Y-112905285D01*
X150160142Y-112977857D01*
X150160142Y-113086714D01*
X150123857Y-113159285D01*
X150087571Y-113195571D01*
X150015000Y-113231857D01*
X149724714Y-113231857D01*
X150450428Y-112905285D02*
X150486714Y-112869000D01*
X150559285Y-112832714D01*
X150740714Y-112832714D01*
X150813285Y-112869000D01*
X150849571Y-112905285D01*
X150885857Y-112977857D01*
X150885857Y-113050428D01*
X150849571Y-113159285D01*
X150414142Y-113594714D01*
X150885857Y-113594714D01*
X151176142Y-112905285D02*
X151212428Y-112869000D01*
X151285000Y-112832714D01*
X151466428Y-112832714D01*
X151539000Y-112869000D01*
X151575285Y-112905285D01*
X151611571Y-112977857D01*
X151611571Y-113050428D01*
X151575285Y-113159285D01*
X151139857Y-113594714D01*
X151611571Y-113594714D01*
%TO.C,U2*%
X140082714Y-105830571D02*
X140699571Y-105830571D01*
X140772142Y-105794285D01*
X140808428Y-105758000D01*
X140844714Y-105685428D01*
X140844714Y-105540285D01*
X140808428Y-105467714D01*
X140772142Y-105431428D01*
X140699571Y-105395142D01*
X140082714Y-105395142D01*
X140155285Y-105068571D02*
X140119000Y-105032285D01*
X140082714Y-104959714D01*
X140082714Y-104778285D01*
X140119000Y-104705714D01*
X140155285Y-104669428D01*
X140227857Y-104633142D01*
X140300428Y-104633142D01*
X140409285Y-104669428D01*
X140844714Y-105104857D01*
X140844714Y-104633142D01*
%TO.C,R7*%
X135873000Y-128844714D02*
X135619000Y-128481857D01*
X135437571Y-128844714D02*
X135437571Y-128082714D01*
X135727857Y-128082714D01*
X135800428Y-128119000D01*
X135836714Y-128155285D01*
X135873000Y-128227857D01*
X135873000Y-128336714D01*
X135836714Y-128409285D01*
X135800428Y-128445571D01*
X135727857Y-128481857D01*
X135437571Y-128481857D01*
X136127000Y-128082714D02*
X136635000Y-128082714D01*
X136308428Y-128844714D01*
%TO.C,R9*%
X139123000Y-130594714D02*
X138869000Y-130231857D01*
X138687571Y-130594714D02*
X138687571Y-129832714D01*
X138977857Y-129832714D01*
X139050428Y-129869000D01*
X139086714Y-129905285D01*
X139123000Y-129977857D01*
X139123000Y-130086714D01*
X139086714Y-130159285D01*
X139050428Y-130195571D01*
X138977857Y-130231857D01*
X138687571Y-130231857D01*
X139485857Y-130594714D02*
X139631000Y-130594714D01*
X139703571Y-130558428D01*
X139739857Y-130522142D01*
X139812428Y-130413285D01*
X139848714Y-130268142D01*
X139848714Y-129977857D01*
X139812428Y-129905285D01*
X139776142Y-129869000D01*
X139703571Y-129832714D01*
X139558428Y-129832714D01*
X139485857Y-129869000D01*
X139449571Y-129905285D01*
X139413285Y-129977857D01*
X139413285Y-130159285D01*
X139449571Y-130231857D01*
X139485857Y-130268142D01*
X139558428Y-130304428D01*
X139703571Y-130304428D01*
X139776142Y-130268142D01*
X139812428Y-130231857D01*
X139848714Y-130159285D01*
%TO.C,R26*%
X166844714Y-97339857D02*
X166481857Y-97593857D01*
X166844714Y-97775285D02*
X166082714Y-97775285D01*
X166082714Y-97485000D01*
X166119000Y-97412428D01*
X166155285Y-97376142D01*
X166227857Y-97339857D01*
X166336714Y-97339857D01*
X166409285Y-97376142D01*
X166445571Y-97412428D01*
X166481857Y-97485000D01*
X166481857Y-97775285D01*
X166155285Y-97049571D02*
X166119000Y-97013285D01*
X166082714Y-96940714D01*
X166082714Y-96759285D01*
X166119000Y-96686714D01*
X166155285Y-96650428D01*
X166227857Y-96614142D01*
X166300428Y-96614142D01*
X166409285Y-96650428D01*
X166844714Y-97085857D01*
X166844714Y-96614142D01*
X166082714Y-95961000D02*
X166082714Y-96106142D01*
X166119000Y-96178714D01*
X166155285Y-96215000D01*
X166264142Y-96287571D01*
X166409285Y-96323857D01*
X166699571Y-96323857D01*
X166772142Y-96287571D01*
X166808428Y-96251285D01*
X166844714Y-96178714D01*
X166844714Y-96033571D01*
X166808428Y-95961000D01*
X166772142Y-95924714D01*
X166699571Y-95888428D01*
X166518142Y-95888428D01*
X166445571Y-95924714D01*
X166409285Y-95961000D01*
X166373000Y-96033571D01*
X166373000Y-96178714D01*
X166409285Y-96251285D01*
X166445571Y-96287571D01*
X166518142Y-96323857D01*
%TO.C,P1*%
X130955285Y-128737571D02*
X131717285Y-128737571D01*
X131717285Y-129027857D01*
X131681000Y-129100428D01*
X131644714Y-129136714D01*
X131572142Y-129173000D01*
X131463285Y-129173000D01*
X131390714Y-129136714D01*
X131354428Y-129100428D01*
X131318142Y-129027857D01*
X131318142Y-128737571D01*
X130955285Y-129898714D02*
X130955285Y-129463285D01*
X130955285Y-129681000D02*
X131717285Y-129681000D01*
X131608428Y-129608428D01*
X131535857Y-129535857D01*
X131499571Y-129463285D01*
%TO.C,C20*%
X151680142Y-126992142D02*
X151643857Y-127028428D01*
X151535000Y-127064714D01*
X151462428Y-127064714D01*
X151353571Y-127028428D01*
X151281000Y-126955857D01*
X151244714Y-126883285D01*
X151208428Y-126738142D01*
X151208428Y-126629285D01*
X151244714Y-126484142D01*
X151281000Y-126411571D01*
X151353571Y-126339000D01*
X151462428Y-126302714D01*
X151535000Y-126302714D01*
X151643857Y-126339000D01*
X151680142Y-126375285D01*
X151970428Y-126375285D02*
X152006714Y-126339000D01*
X152079285Y-126302714D01*
X152260714Y-126302714D01*
X152333285Y-126339000D01*
X152369571Y-126375285D01*
X152405857Y-126447857D01*
X152405857Y-126520428D01*
X152369571Y-126629285D01*
X151934142Y-127064714D01*
X152405857Y-127064714D01*
X152877571Y-126302714D02*
X152950142Y-126302714D01*
X153022714Y-126339000D01*
X153059000Y-126375285D01*
X153095285Y-126447857D01*
X153131571Y-126593000D01*
X153131571Y-126774428D01*
X153095285Y-126919571D01*
X153059000Y-126992142D01*
X153022714Y-127028428D01*
X152950142Y-127064714D01*
X152877571Y-127064714D01*
X152805000Y-127028428D01*
X152768714Y-126992142D01*
X152732428Y-126919571D01*
X152696142Y-126774428D01*
X152696142Y-126593000D01*
X152732428Y-126447857D01*
X152768714Y-126375285D01*
X152805000Y-126339000D01*
X152877571Y-126302714D01*
%TO.C,R25*%
X161744714Y-97339857D02*
X161381857Y-97593857D01*
X161744714Y-97775285D02*
X160982714Y-97775285D01*
X160982714Y-97485000D01*
X161019000Y-97412428D01*
X161055285Y-97376142D01*
X161127857Y-97339857D01*
X161236714Y-97339857D01*
X161309285Y-97376142D01*
X161345571Y-97412428D01*
X161381857Y-97485000D01*
X161381857Y-97775285D01*
X161055285Y-97049571D02*
X161019000Y-97013285D01*
X160982714Y-96940714D01*
X160982714Y-96759285D01*
X161019000Y-96686714D01*
X161055285Y-96650428D01*
X161127857Y-96614142D01*
X161200428Y-96614142D01*
X161309285Y-96650428D01*
X161744714Y-97085857D01*
X161744714Y-96614142D01*
X160982714Y-95924714D02*
X160982714Y-96287571D01*
X161345571Y-96323857D01*
X161309285Y-96287571D01*
X161273000Y-96215000D01*
X161273000Y-96033571D01*
X161309285Y-95961000D01*
X161345571Y-95924714D01*
X161418142Y-95888428D01*
X161599571Y-95888428D01*
X161672142Y-95924714D01*
X161708428Y-95961000D01*
X161744714Y-96033571D01*
X161744714Y-96215000D01*
X161708428Y-96287571D01*
X161672142Y-96323857D01*
%TO.C,R18*%
X138260142Y-120644714D02*
X138006142Y-120281857D01*
X137824714Y-120644714D02*
X137824714Y-119882714D01*
X138115000Y-119882714D01*
X138187571Y-119919000D01*
X138223857Y-119955285D01*
X138260142Y-120027857D01*
X138260142Y-120136714D01*
X138223857Y-120209285D01*
X138187571Y-120245571D01*
X138115000Y-120281857D01*
X137824714Y-120281857D01*
X138985857Y-120644714D02*
X138550428Y-120644714D01*
X138768142Y-120644714D02*
X138768142Y-119882714D01*
X138695571Y-119991571D01*
X138623000Y-120064142D01*
X138550428Y-120100428D01*
X139421285Y-120209285D02*
X139348714Y-120173000D01*
X139312428Y-120136714D01*
X139276142Y-120064142D01*
X139276142Y-120027857D01*
X139312428Y-119955285D01*
X139348714Y-119919000D01*
X139421285Y-119882714D01*
X139566428Y-119882714D01*
X139639000Y-119919000D01*
X139675285Y-119955285D01*
X139711571Y-120027857D01*
X139711571Y-120064142D01*
X139675285Y-120136714D01*
X139639000Y-120173000D01*
X139566428Y-120209285D01*
X139421285Y-120209285D01*
X139348714Y-120245571D01*
X139312428Y-120281857D01*
X139276142Y-120354428D01*
X139276142Y-120499571D01*
X139312428Y-120572142D01*
X139348714Y-120608428D01*
X139421285Y-120644714D01*
X139566428Y-120644714D01*
X139639000Y-120608428D01*
X139675285Y-120572142D01*
X139711571Y-120499571D01*
X139711571Y-120354428D01*
X139675285Y-120281857D01*
X139639000Y-120245571D01*
X139566428Y-120209285D01*
%TO.C,T1*%
X160338095Y-124302380D02*
X160909523Y-124302380D01*
X160623809Y-125302380D02*
X160623809Y-124302380D01*
X161766666Y-125302380D02*
X161195238Y-125302380D01*
X161480952Y-125302380D02*
X161480952Y-124302380D01*
X161385714Y-124445238D01*
X161290476Y-124540476D01*
X161195238Y-124588095D01*
%TO.C,C28*%
X135772142Y-113739857D02*
X135808428Y-113776142D01*
X135844714Y-113885000D01*
X135844714Y-113957571D01*
X135808428Y-114066428D01*
X135735857Y-114139000D01*
X135663285Y-114175285D01*
X135518142Y-114211571D01*
X135409285Y-114211571D01*
X135264142Y-114175285D01*
X135191571Y-114139000D01*
X135119000Y-114066428D01*
X135082714Y-113957571D01*
X135082714Y-113885000D01*
X135119000Y-113776142D01*
X135155285Y-113739857D01*
X135155285Y-113449571D02*
X135119000Y-113413285D01*
X135082714Y-113340714D01*
X135082714Y-113159285D01*
X135119000Y-113086714D01*
X135155285Y-113050428D01*
X135227857Y-113014142D01*
X135300428Y-113014142D01*
X135409285Y-113050428D01*
X135844714Y-113485857D01*
X135844714Y-113014142D01*
X135409285Y-112578714D02*
X135373000Y-112651285D01*
X135336714Y-112687571D01*
X135264142Y-112723857D01*
X135227857Y-112723857D01*
X135155285Y-112687571D01*
X135119000Y-112651285D01*
X135082714Y-112578714D01*
X135082714Y-112433571D01*
X135119000Y-112361000D01*
X135155285Y-112324714D01*
X135227857Y-112288428D01*
X135264142Y-112288428D01*
X135336714Y-112324714D01*
X135373000Y-112361000D01*
X135409285Y-112433571D01*
X135409285Y-112578714D01*
X135445571Y-112651285D01*
X135481857Y-112687571D01*
X135554428Y-112723857D01*
X135699571Y-112723857D01*
X135772142Y-112687571D01*
X135808428Y-112651285D01*
X135844714Y-112578714D01*
X135844714Y-112433571D01*
X135808428Y-112361000D01*
X135772142Y-112324714D01*
X135699571Y-112288428D01*
X135554428Y-112288428D01*
X135481857Y-112324714D01*
X135445571Y-112361000D01*
X135409285Y-112433571D01*
%TO.C,L2*%
X136903947Y-83833552D02*
X136647368Y-84090131D01*
X136108553Y-83551315D01*
X136570394Y-83192105D02*
X136570394Y-83140789D01*
X136596052Y-83063816D01*
X136724342Y-82935526D01*
X136801315Y-82909868D01*
X136852631Y-82909868D01*
X136929605Y-82935526D01*
X136980920Y-82986842D01*
X137032236Y-83089474D01*
X137032236Y-83705262D01*
X137365788Y-83371710D01*
%TO.C,C21*%
X151365000Y-120800000D02*
X151365000Y-120200000D01*
X152635000Y-120200000D02*
X152635000Y-120800000D01*
%TO.C,C24*%
X158300000Y-110135000D02*
X157700000Y-110135000D01*
X157700000Y-108865000D02*
X158300000Y-108865000D01*
%TO.C,C33*%
X126550000Y-114635000D02*
X125950000Y-114635000D01*
X125950000Y-113365000D02*
X126550000Y-113365000D01*
D12*
%TO.C,Q1*%
X152881000Y-90524000D02*
X152119000Y-90524000D01*
X152881000Y-87476000D02*
X152881000Y-90524000D01*
X152119000Y-87476000D02*
X152881000Y-87476000D01*
X152119000Y-90524000D02*
X152119000Y-87476000D01*
D13*
%TO.C,X1*%
X142250000Y-96400000D02*
X142250000Y-95600000D01*
X143800000Y-97600000D02*
X143200000Y-97600000D01*
X144750000Y-96400000D02*
X144750000Y-95600000D01*
X143200000Y-94400000D02*
X143800000Y-94400000D01*
D11*
%TO.C,C8*%
X139986881Y-82588855D02*
X140411145Y-83013119D01*
X139513119Y-83911145D02*
X139088855Y-83486881D01*
%TO.C,C32*%
X126200000Y-119365000D02*
X126800000Y-119365000D01*
X126800000Y-120635000D02*
X126200000Y-120635000D01*
%TO.C,R23*%
X163700000Y-124365000D02*
X164300000Y-124365000D01*
X164300000Y-125635000D02*
X163700000Y-125635000D01*
%TO.C,C16*%
X127450000Y-94365000D02*
X128050000Y-94365000D01*
X128050000Y-95635000D02*
X127450000Y-95635000D01*
%TO.C,R19*%
X142615000Y-123800000D02*
X142615000Y-123200000D01*
X143885000Y-123200000D02*
X143885000Y-123800000D01*
D14*
%TO.C,ohw_logo*%
X166777500Y-107330200D02*
X168479300Y-107330200D01*
X169622300Y-106974600D02*
X171349500Y-106974600D01*
X170130300Y-108651000D02*
X170689100Y-108651000D01*
X167437900Y-105272800D02*
X167793500Y-105272800D01*
X167437900Y-107838200D02*
X168707900Y-107838200D01*
X167361700Y-108143000D02*
X168606300Y-108143000D01*
X166675900Y-107304800D02*
X168453900Y-107304800D01*
X167133100Y-106619000D02*
X168504700Y-106619000D01*
X167310900Y-107482600D02*
X168606300Y-107482600D01*
X169596900Y-106796800D02*
X171324100Y-106796800D01*
X168580900Y-105196600D02*
X169393700Y-105196600D01*
X169444500Y-108143000D02*
X170739900Y-108143000D01*
X167336300Y-107609600D02*
X168784100Y-107609600D01*
X170257300Y-105222000D02*
X170485900Y-105222000D01*
X167260100Y-108600200D02*
X168453900Y-108600200D01*
X168174500Y-105476000D02*
X169825500Y-105476000D01*
X169622300Y-107076200D02*
X171349500Y-107076200D01*
X169241300Y-107660400D02*
X170638300Y-107660400D01*
X167209300Y-108371600D02*
X168530100Y-108371600D01*
X168174500Y-108625600D02*
X168428500Y-108625600D01*
X166675900Y-106923800D02*
X168377700Y-106923800D01*
X170104900Y-108625600D02*
X170714500Y-108625600D01*
X167183900Y-108397000D02*
X168504700Y-108397000D01*
X166675900Y-107279400D02*
X168428500Y-107279400D01*
X167310900Y-106568200D02*
X168555500Y-106568200D01*
X167310900Y-105831600D02*
X170663700Y-105831600D01*
X167463300Y-108905000D02*
X167691900Y-108905000D01*
X167437900Y-108854200D02*
X167717300Y-108854200D01*
X167361700Y-105882400D02*
X170638300Y-105882400D01*
X169977900Y-105399800D02*
X170689100Y-105399800D01*
X170155700Y-108676400D02*
X170714500Y-108676400D01*
X167310900Y-108651000D02*
X167996700Y-108651000D01*
X169368300Y-107508000D02*
X170689100Y-107508000D01*
X170257300Y-108778000D02*
X170714500Y-108778000D01*
X169393700Y-108066800D02*
X170689100Y-108066800D01*
X167412500Y-107787400D02*
X168733300Y-107787400D01*
X169571500Y-106746000D02*
X171324100Y-106746000D01*
X168682500Y-104739400D02*
X169317500Y-104739400D01*
X167183900Y-105628400D02*
X170816100Y-105628400D01*
X167463300Y-107889000D02*
X168682500Y-107889000D01*
X169596900Y-106822200D02*
X171324100Y-106822200D01*
X167336300Y-108168400D02*
X168606300Y-108168400D01*
X169393700Y-108016000D02*
X170638300Y-108016000D01*
X167387100Y-106314200D02*
X170612900Y-106314200D01*
X169444500Y-108168400D02*
X170739900Y-108168400D01*
X167463300Y-106187200D02*
X170536700Y-106187200D01*
X167412500Y-108803400D02*
X167768100Y-108803400D01*
X166828300Y-106669800D02*
X168479300Y-106669800D01*
X167285500Y-105425200D02*
X167996700Y-105425200D01*
X169596900Y-107228600D02*
X171324100Y-107228600D01*
X166980700Y-106644400D02*
X168504700Y-106644400D01*
X169622300Y-108651000D02*
X169774700Y-108651000D01*
X169647700Y-108676400D02*
X169723900Y-108676400D01*
X166675900Y-107177800D02*
X168403100Y-107177800D01*
X167437900Y-108041400D02*
X168631700Y-108041400D01*
X168326900Y-105399800D02*
X169647700Y-105399800D01*
X169622300Y-107000000D02*
X171349500Y-107000000D01*
X167412500Y-108066800D02*
X168631700Y-108066800D01*
X169520700Y-107355600D02*
X170816100Y-107355600D01*
X170054100Y-105349000D02*
X170638300Y-105349000D01*
X169266700Y-107711200D02*
X170612900Y-107711200D01*
X167361700Y-106365000D02*
X170612900Y-106365000D01*
X167158500Y-105577600D02*
X170816100Y-105577600D01*
X167387100Y-108117600D02*
X168606300Y-108117600D01*
X169444500Y-106568200D02*
X170917700Y-106568200D01*
X167234700Y-105730000D02*
X170739900Y-105730000D01*
X168403100Y-105374400D02*
X169596900Y-105374400D01*
X167463300Y-106161800D02*
X170536700Y-106161800D01*
X167412500Y-105298200D02*
X167818900Y-105298200D01*
X170079500Y-108600200D02*
X170739900Y-108600200D01*
X169190500Y-106415800D02*
X170638300Y-106415800D01*
X169571500Y-106771400D02*
X171324100Y-106771400D01*
X169622300Y-107101600D02*
X171349500Y-107101600D01*
X167412500Y-108752600D02*
X167844300Y-108752600D01*
X167310900Y-106517400D02*
X168606300Y-106517400D01*
X168657100Y-104841000D02*
X169342900Y-104841000D01*
X166675900Y-106847600D02*
X168403100Y-106847600D01*
X168606300Y-105095000D02*
X169393700Y-105095000D01*
X167310900Y-107508000D02*
X168631700Y-107508000D01*
X169342900Y-106492000D02*
X170663700Y-106492000D01*
X167387100Y-108727200D02*
X167869700Y-108727200D01*
X169596900Y-107177800D02*
X171349500Y-107177800D01*
X166675900Y-107228600D02*
X168428500Y-107228600D01*
X170308100Y-108803400D02*
X170714500Y-108803400D01*
X169342900Y-107533400D02*
X170689100Y-107533400D01*
X169546100Y-108447800D02*
X170866900Y-108447800D01*
X169520700Y-108346200D02*
X170866900Y-108346200D01*
X167310900Y-108219200D02*
X168580900Y-108219200D01*
X170333500Y-105171200D02*
X170435100Y-105171200D01*
X167158500Y-108447800D02*
X168504700Y-108447800D01*
X169571500Y-108524000D02*
X170790700Y-108524000D01*
X168657100Y-104790200D02*
X169342900Y-104790200D01*
X170155700Y-108701800D02*
X170714500Y-108701800D01*
X167310900Y-107533400D02*
X168657100Y-107533400D01*
X167260100Y-108295400D02*
X168555500Y-108295400D01*
X167437900Y-106212600D02*
X170562100Y-106212600D01*
X167336300Y-105374400D02*
X167920500Y-105374400D01*
X166650500Y-107000000D02*
X168377700Y-107000000D01*
X167310900Y-105806200D02*
X170689100Y-105806200D01*
X166650500Y-107076200D02*
X168377700Y-107076200D01*
X170206500Y-105247400D02*
X170536700Y-105247400D01*
X168631700Y-105018800D02*
X169368300Y-105018800D01*
X167437900Y-106009400D02*
X170536700Y-106009400D01*
X167336300Y-106492000D02*
X168657100Y-106492000D01*
X167336300Y-106466600D02*
X168682500Y-106466600D01*
X169368300Y-107990600D02*
X170638300Y-107990600D01*
X167183900Y-105526800D02*
X170790700Y-105526800D01*
X167387100Y-107736600D02*
X168758700Y-107736600D01*
X167361700Y-107685800D02*
X168758700Y-107685800D01*
X169622300Y-106873000D02*
X171324100Y-106873000D01*
X166650500Y-107127000D02*
X168377700Y-107127000D01*
X168657100Y-104891800D02*
X169342900Y-104891800D01*
X168606300Y-105069600D02*
X169393700Y-105069600D01*
X170358900Y-108828800D02*
X170689100Y-108828800D01*
X169469900Y-107406400D02*
X170714500Y-107406400D01*
X169317500Y-106466600D02*
X170663700Y-106466600D01*
X169393700Y-108041400D02*
X170663700Y-108041400D01*
X167361700Y-105349000D02*
X167895100Y-105349000D01*
X169520700Y-108371600D02*
X170892300Y-108371600D01*
X169622300Y-107152400D02*
X171349500Y-107152400D01*
X168250700Y-108651000D02*
X168428500Y-108651000D01*
X169368300Y-107965200D02*
X170612900Y-107965200D01*
X167514100Y-108955800D02*
X167666500Y-108955800D01*
X167336300Y-107584200D02*
X168758700Y-107584200D01*
X169622300Y-106898400D02*
X171324100Y-106898400D01*
X167285500Y-106593600D02*
X168530100Y-106593600D01*
X167463300Y-106060200D02*
X170511300Y-106060200D01*
X169266700Y-107736600D02*
X170612900Y-107736600D01*
X169596900Y-107203200D02*
X171324100Y-107203200D01*
X169495300Y-106619000D02*
X171197100Y-106619000D01*
X169317500Y-107812800D02*
X170562100Y-107812800D01*
X170485900Y-108930400D02*
X170638300Y-108930400D01*
X168682500Y-104714000D02*
X169317500Y-104714000D01*
X167514100Y-105222000D02*
X167717300Y-105222000D01*
X167209300Y-108346200D02*
X168530100Y-108346200D01*
X168479300Y-105349000D02*
X169520700Y-105349000D01*
X167183900Y-107406400D02*
X168530100Y-107406400D01*
X167285500Y-105780800D02*
X170714500Y-105780800D01*
X169495300Y-108270000D02*
X170816100Y-108270000D01*
X167412500Y-108828800D02*
X167742700Y-108828800D01*
X167285500Y-108270000D02*
X168555500Y-108270000D01*
X166650500Y-107101600D02*
X168377700Y-107101600D01*
X167437900Y-107812800D02*
X168707900Y-107812800D01*
X168352300Y-108701800D02*
X168403100Y-108701800D01*
X169241300Y-107584200D02*
X170663700Y-107584200D01*
X167183900Y-105653800D02*
X170790700Y-105653800D01*
X168606300Y-105145800D02*
X169393700Y-105145800D01*
X170409700Y-108854200D02*
X170689100Y-108854200D01*
X170130300Y-105298200D02*
X170587500Y-105298200D01*
X168606300Y-105044200D02*
X169368300Y-105044200D01*
X169546100Y-108422400D02*
X170892300Y-108422400D01*
X167463300Y-105247400D02*
X167742700Y-105247400D01*
X167361700Y-106390400D02*
X168885700Y-106390400D01*
X169317500Y-107838200D02*
X170562100Y-107838200D01*
X167234700Y-108574800D02*
X168453900Y-108574800D01*
X170536700Y-108981200D02*
X170587500Y-108981200D01*
X169292100Y-107558800D02*
X170663700Y-107558800D01*
X166675900Y-106746000D02*
X168428500Y-106746000D01*
X170231900Y-108752600D02*
X170714500Y-108752600D01*
X167564900Y-109006600D02*
X167641100Y-109006600D01*
X167463300Y-106034800D02*
X170511300Y-106034800D01*
X167361700Y-105907800D02*
X170612900Y-105907800D01*
X169469900Y-106593600D02*
X171044700Y-106593600D01*
X167285500Y-107431800D02*
X168555500Y-107431800D01*
X170003300Y-108574800D02*
X170765300Y-108574800D01*
X167158500Y-105603000D02*
X170816100Y-105603000D01*
X167260100Y-105450600D02*
X168022100Y-105450600D01*
X167437900Y-106238000D02*
X170562100Y-106238000D01*
X167310900Y-106542800D02*
X168580900Y-106542800D01*
X167336300Y-105857000D02*
X170663700Y-105857000D01*
X167387100Y-105323600D02*
X167844300Y-105323600D01*
X167336300Y-107558800D02*
X168707900Y-107558800D01*
X170104900Y-105323600D02*
X170612900Y-105323600D01*
X168657100Y-104815600D02*
X169342900Y-104815600D01*
X167336300Y-108193800D02*
X168580900Y-108193800D01*
X167539500Y-105196600D02*
X167666500Y-105196600D01*
X169393700Y-107482600D02*
X170689100Y-107482600D01*
X167056900Y-107381000D02*
X168504700Y-107381000D01*
X167488700Y-106136400D02*
X170511300Y-106136400D01*
X170028700Y-105374400D02*
X170663700Y-105374400D01*
X167488700Y-106111000D02*
X170485900Y-106111000D01*
X167488700Y-106085600D02*
X170485900Y-106085600D01*
X167488700Y-107914400D02*
X168682500Y-107914400D01*
X167387100Y-107711200D02*
X168758700Y-107711200D01*
X166675900Y-106796800D02*
X168403100Y-106796800D01*
X168834900Y-104688600D02*
X169088900Y-104688600D01*
X167158500Y-108422400D02*
X168504700Y-108422400D01*
X167488700Y-108930400D02*
X167666500Y-108930400D01*
X168657100Y-104764800D02*
X169342900Y-104764800D01*
X167234700Y-108320800D02*
X168530100Y-108320800D01*
X168580900Y-105298200D02*
X169419100Y-105298200D01*
X169114300Y-106390400D02*
X170638300Y-106390400D01*
X169546100Y-107304800D02*
X171146300Y-107304800D01*
X167564900Y-105171200D02*
X167641100Y-105171200D01*
X169495300Y-106644400D02*
X171298700Y-106644400D01*
X169419100Y-108092200D02*
X170689100Y-108092200D01*
X167183900Y-105552200D02*
X170816100Y-105552200D01*
X169622300Y-108600200D02*
X169876300Y-108600200D01*
X168580900Y-105272800D02*
X169419100Y-105272800D01*
X169368300Y-107939800D02*
X170587500Y-107939800D01*
X167412500Y-105958600D02*
X170587500Y-105958600D01*
X169927100Y-105450600D02*
X170739900Y-105450600D01*
X168225300Y-105450600D02*
X169774700Y-105450600D01*
X166675900Y-107203200D02*
X168403100Y-107203200D01*
X167539500Y-108981200D02*
X167641100Y-108981200D01*
X166675900Y-106822200D02*
X168403100Y-106822200D01*
X169622300Y-107025400D02*
X171349500Y-107025400D01*
X169469900Y-108219200D02*
X170790700Y-108219200D01*
X167234700Y-105476000D02*
X168072900Y-105476000D01*
X169546100Y-108397000D02*
X170892300Y-108397000D01*
X167412500Y-108092200D02*
X168631700Y-108092200D01*
X169469900Y-107431800D02*
X170714500Y-107431800D01*
X169546100Y-106695200D02*
X171324100Y-106695200D01*
X167387100Y-106339600D02*
X170612900Y-106339600D01*
X167412500Y-107762000D02*
X168733300Y-107762000D01*
X169622300Y-106923800D02*
X171349500Y-106923800D01*
X169393700Y-106517400D02*
X170689100Y-106517400D01*
X169876300Y-105476000D02*
X170765300Y-105476000D01*
X168123700Y-105501400D02*
X170790700Y-105501400D01*
X167361700Y-107660400D02*
X168784100Y-107660400D01*
X168606300Y-105171200D02*
X169393700Y-105171200D01*
X169241300Y-107609600D02*
X170663700Y-107609600D01*
X166675900Y-106898400D02*
X168377700Y-106898400D01*
X166701300Y-106695200D02*
X168453900Y-106695200D01*
X168555500Y-105323600D02*
X169419100Y-105323600D01*
X169546100Y-106720600D02*
X171324100Y-106720600D01*
X167488700Y-107990600D02*
X168657100Y-107990600D01*
X169647700Y-108701800D02*
X169673100Y-108701800D01*
X169571500Y-108473200D02*
X170841500Y-108473200D01*
X169952500Y-105425200D02*
X170714500Y-105425200D01*
X166675900Y-106771400D02*
X168428500Y-106771400D01*
X167310900Y-105399800D02*
X167971300Y-105399800D01*
X170206500Y-108727200D02*
X170714500Y-108727200D01*
X167209300Y-108549400D02*
X168453900Y-108549400D01*
X168631700Y-104917200D02*
X169368300Y-104917200D01*
X166650500Y-106974600D02*
X168377700Y-106974600D01*
X169622300Y-108625600D02*
X169825500Y-108625600D01*
X170460500Y-108905000D02*
X170663700Y-108905000D01*
X168580900Y-105222000D02*
X169393700Y-105222000D01*
X168631700Y-104993400D02*
X169368300Y-104993400D01*
X168276100Y-105425200D02*
X169723900Y-105425200D01*
X167158500Y-108498600D02*
X168479300Y-108498600D01*
X169317500Y-107863600D02*
X170536700Y-107863600D01*
X169622300Y-107127000D02*
X171349500Y-107127000D01*
X167387100Y-105933200D02*
X170587500Y-105933200D01*
X167463300Y-107863600D02*
X168707900Y-107863600D01*
X169419100Y-108117600D02*
X170714500Y-108117600D01*
X169596900Y-108574800D02*
X169952500Y-108574800D01*
X166650500Y-107025400D02*
X168377700Y-107025400D01*
X169596900Y-108549400D02*
X170790700Y-108549400D01*
X169520700Y-106669800D02*
X171298700Y-106669800D01*
X167412500Y-106288800D02*
X170587500Y-106288800D01*
X167209300Y-105501400D02*
X168098300Y-105501400D01*
X166650500Y-107050800D02*
X168377700Y-107050800D01*
X169469900Y-108244600D02*
X170790700Y-108244600D01*
X168631700Y-104968000D02*
X169368300Y-104968000D01*
X168631700Y-104942600D02*
X169368300Y-104942600D01*
X168301500Y-108676400D02*
X168403100Y-108676400D01*
X169571500Y-107279400D02*
X171298700Y-107279400D01*
X169596900Y-106847600D02*
X171324100Y-106847600D01*
X167336300Y-106441200D02*
X168733300Y-106441200D01*
X167234700Y-105704600D02*
X170765300Y-105704600D01*
X166650500Y-107152400D02*
X168403100Y-107152400D01*
X168606300Y-105120400D02*
X169393700Y-105120400D01*
X168657100Y-104866400D02*
X169342900Y-104866400D01*
X169622300Y-106949200D02*
X171349500Y-106949200D01*
X167437900Y-108879600D02*
X167691900Y-108879600D01*
X168580900Y-105247400D02*
X169419100Y-105247400D01*
X169571500Y-107254000D02*
X171324100Y-107254000D01*
X167158500Y-108473200D02*
X168479300Y-108473200D01*
X170511300Y-108955800D02*
X170612900Y-108955800D01*
X167310900Y-107457200D02*
X168555500Y-107457200D01*
X169266700Y-106441200D02*
X170663700Y-106441200D01*
X169342900Y-107914400D02*
X170562100Y-107914400D01*
X167285500Y-108244600D02*
X168555500Y-108244600D01*
X166650500Y-106949200D02*
X168377700Y-106949200D01*
X170282700Y-105196600D02*
X170460500Y-105196600D01*
X167361700Y-106415800D02*
X168809500Y-106415800D01*
X169571500Y-108498600D02*
X170816100Y-108498600D01*
X169342900Y-107889000D02*
X170562100Y-107889000D01*
X167412500Y-106263400D02*
X170587500Y-106263400D01*
X169546100Y-107330200D02*
X170993900Y-107330200D01*
X169622300Y-107050800D02*
X171349500Y-107050800D01*
X166675900Y-106720600D02*
X168453900Y-106720600D01*
X166675900Y-106873000D02*
X168403100Y-106873000D01*
X169292100Y-107762000D02*
X170587500Y-107762000D01*
X167463300Y-108016000D02*
X168657100Y-108016000D01*
X167285500Y-108625600D02*
X168047500Y-108625600D01*
X166904500Y-107355600D02*
X168479300Y-107355600D01*
X167361700Y-108701800D02*
X167920500Y-108701800D01*
X169444500Y-107457200D02*
X170689100Y-107457200D01*
X169266700Y-107685800D02*
X170612900Y-107685800D01*
X167183900Y-108524000D02*
X168479300Y-108524000D01*
X169495300Y-108320800D02*
X170866900Y-108320800D01*
X167209300Y-105679200D02*
X170790700Y-105679200D01*
X167260100Y-105755400D02*
X170714500Y-105755400D01*
X170435100Y-108879600D02*
X170663700Y-108879600D01*
X169292100Y-107787400D02*
X170587500Y-107787400D01*
X169419100Y-106542800D02*
X170765300Y-106542800D01*
X167412500Y-105984000D02*
X170562100Y-105984000D01*
X166675900Y-107254000D02*
X168428500Y-107254000D01*
X169241300Y-107635000D02*
X170638300Y-107635000D01*
X167488700Y-107939800D02*
X168682500Y-107939800D01*
X169495300Y-108295400D02*
X170841500Y-108295400D01*
X167412500Y-108778000D02*
X167793500Y-108778000D01*
X167361700Y-107635000D02*
X168784100Y-107635000D01*
X169495300Y-107381000D02*
X170714500Y-107381000D01*
X169444500Y-108193800D02*
X170765300Y-108193800D01*
X167336300Y-108676400D02*
X167945900Y-108676400D01*
X167488700Y-107965200D02*
X168657100Y-107965200D01*
X170181100Y-105272800D02*
X170562100Y-105272800D01*
D11*
%TO.C,C3*%
X143800000Y-99635000D02*
X143200000Y-99635000D01*
X143200000Y-98365000D02*
X143800000Y-98365000D01*
%TO.C,C39*%
X142285000Y-125200000D02*
X142285000Y-125800000D01*
X141015000Y-125800000D02*
X141015000Y-125200000D01*
%TO.C,R3*%
X143865000Y-106300000D02*
X143865000Y-105700000D01*
X145135000Y-105700000D02*
X145135000Y-106300000D01*
%TO.C,R6*%
X148865000Y-89300000D02*
X148865000Y-88700000D01*
X150135000Y-88700000D02*
X150135000Y-89300000D01*
%TO.C,C7*%
X131588855Y-83013119D02*
X132013119Y-82588855D01*
X132911145Y-83486881D02*
X132486881Y-83911145D01*
%TO.C,C38*%
X144615000Y-129800000D02*
X144615000Y-129200000D01*
X145885000Y-129200000D02*
X145885000Y-129800000D01*
%TO.C,L1*%
X134986881Y-84088855D02*
X135411145Y-84513119D01*
X134513119Y-85411145D02*
X134088855Y-84986881D01*
%TO.C,C2*%
X143200000Y-92365000D02*
X143800000Y-92365000D01*
X143800000Y-93635000D02*
X143200000Y-93635000D01*
%TO.C,C6*%
X138300000Y-89885000D02*
X137700000Y-89885000D01*
X137700000Y-88615000D02*
X138300000Y-88615000D01*
%TO.C,L4*%
X151800000Y-125885000D02*
X151200000Y-125885000D01*
X151200000Y-124615000D02*
X151800000Y-124615000D01*
%TO.C,R27*%
X144365000Y-123800000D02*
X144365000Y-123200000D01*
X145635000Y-123200000D02*
X145635000Y-123800000D01*
%TO.C,R8*%
X142200000Y-128615000D02*
X142800000Y-128615000D01*
X142800000Y-129885000D02*
X142200000Y-129885000D01*
%TO.C,R29*%
X166435000Y-86200000D02*
X166435000Y-86800000D01*
X165165000Y-86800000D02*
X165165000Y-86200000D01*
%TO.C,R2*%
X142365000Y-91300000D02*
X142365000Y-90700000D01*
X143635000Y-90700000D02*
X143635000Y-91300000D01*
%TO.C,C31*%
X128920000Y-122512000D02*
X128080000Y-122512000D01*
X128080000Y-120988000D02*
X128920000Y-120988000D01*
%TO.C,R21*%
X145200000Y-111465000D02*
X145800000Y-111465000D01*
X145800000Y-112735000D02*
X145200000Y-112735000D01*
%TO.C,C27*%
X147135000Y-123200000D02*
X147135000Y-123800000D01*
X145865000Y-123800000D02*
X145865000Y-123200000D01*
%TO.C,R5*%
X155065000Y-86800000D02*
X155065000Y-86200000D01*
X156335000Y-86200000D02*
X156335000Y-86800000D01*
%TO.C,R28*%
X137635000Y-112950000D02*
X137635000Y-113550000D01*
X136365000Y-113550000D02*
X136365000Y-112950000D01*
%TO.C,C23*%
X148238000Y-123670000D02*
X148238000Y-122830000D01*
X149762000Y-122830000D02*
X149762000Y-123670000D01*
%TO.C,R4*%
X128700000Y-99615000D02*
X129300000Y-99615000D01*
X129300000Y-100885000D02*
X128700000Y-100885000D01*
%TO.C,R24*%
X164300000Y-110135000D02*
X163700000Y-110135000D01*
X163700000Y-108865000D02*
X164300000Y-108865000D01*
%TO.C,U3*%
X145468000Y-119282000D02*
X145468000Y-118977200D01*
X149532000Y-119129600D02*
X149532000Y-118977200D01*
X145468000Y-115218000D02*
X145468000Y-115522800D01*
X149532000Y-115218000D02*
X149532000Y-115522800D01*
X145468000Y-119282000D02*
X145772800Y-119282000D01*
X149227200Y-119282000D02*
X149379600Y-119282000D01*
X145468000Y-115218000D02*
X145772800Y-115218000D01*
X149532000Y-115218000D02*
X149227200Y-115218000D01*
X149379600Y-119282000D02*
X149532000Y-119129600D01*
D13*
%TO.C,L5*%
X128500000Y-115500000D02*
X126500000Y-115500000D01*
X126000000Y-118500000D02*
X125500000Y-118000000D01*
X127500000Y-118500000D02*
X126000000Y-118500000D01*
X128500000Y-117500000D02*
X128500000Y-115500000D01*
X125500000Y-118000000D02*
X125500000Y-116500000D01*
D11*
%TO.C,C34*%
X129550000Y-115235000D02*
X128950000Y-115235000D01*
X128950000Y-113965000D02*
X129550000Y-113965000D01*
%TO.C,C13*%
X137965000Y-101050000D02*
X137965000Y-100450000D01*
X139235000Y-100450000D02*
X139235000Y-101050000D01*
D13*
%TO.C,X2*%
X127950000Y-88650000D02*
X128550000Y-88650000D01*
X128550000Y-91850000D02*
X127950000Y-91850000D01*
X129500000Y-89850000D02*
X129500000Y-90650000D01*
X127000000Y-89850000D02*
X127000000Y-90650000D01*
D11*
%TO.C,C26*%
X142450000Y-115865000D02*
X143050000Y-115865000D01*
X143050000Y-117135000D02*
X142450000Y-117135000D01*
D13*
%TO.C,X3*%
X143600000Y-112950000D02*
X143600000Y-113550000D01*
X141600000Y-114500000D02*
X142400000Y-114500000D01*
X141600000Y-112000000D02*
X142400000Y-112000000D01*
X140400000Y-113550000D02*
X140400000Y-112950000D01*
D12*
%TO.C,U5*%
X137075000Y-124400000D02*
X137075000Y-125600000D01*
X134425000Y-125600000D02*
X134425000Y-124400000D01*
X136475000Y-124400000D02*
X137075000Y-125000000D01*
%TO.C,U6*%
X140575000Y-124400000D02*
X140575000Y-125600000D01*
X137925000Y-125600000D02*
X137925000Y-124400000D01*
X139975000Y-124400000D02*
X140575000Y-125000000D01*
D11*
%TO.C,C5*%
X142135000Y-90700000D02*
X142135000Y-91300000D01*
X140865000Y-91300000D02*
X140865000Y-90700000D01*
D15*
%TO.C,C30*%
X127500000Y-125725000D02*
X129500000Y-125725000D01*
X129500000Y-122775000D02*
X127500000Y-122775000D01*
D11*
%TO.C,C15*%
X141385000Y-101950000D02*
X141385000Y-102550000D01*
X140115000Y-102550000D02*
X140115000Y-101950000D01*
%TO.C,R10*%
X154385000Y-93200000D02*
X154385000Y-93800000D01*
X153115000Y-93800000D02*
X153115000Y-93200000D01*
%TO.C,C22*%
X151135000Y-120200000D02*
X151135000Y-120800000D01*
X149865000Y-120800000D02*
X149865000Y-120200000D01*
D12*
%TO.C,U4*%
X129775000Y-119100000D02*
X129175000Y-118500000D01*
X131825000Y-117900000D02*
X131825000Y-119100000D01*
X129175000Y-119100000D02*
X129175000Y-117900000D01*
D11*
%TO.C,R1*%
X132550000Y-92135000D02*
X131950000Y-92135000D01*
X131950000Y-90865000D02*
X132550000Y-90865000D01*
D13*
%TO.C,P2*%
X147460000Y-91960000D02*
X152540000Y-91960000D01*
X147460000Y-97040000D02*
X147460000Y-91960000D01*
D16*
X152540000Y-91960000D02*
X152540000Y-97040000D01*
D13*
X152540000Y-97040000D02*
X147460000Y-97040000D01*
D10*
%TO.C,SW1*%
X154259900Y-102747400D02*
X148240100Y-102747400D01*
X148240100Y-106252600D02*
X148240100Y-105592200D01*
X154259900Y-102747400D02*
X154259900Y-103407800D01*
X154259900Y-106252600D02*
X148240100Y-106252600D01*
X154259900Y-106252600D02*
X154259900Y-105592200D01*
X148240100Y-102747400D02*
X148240100Y-103407800D01*
D11*
%TO.C,C11*%
X132865000Y-89800000D02*
X132865000Y-89200000D01*
X134135000Y-89200000D02*
X134135000Y-89800000D01*
%TO.C,C14*%
X141535000Y-97100000D02*
X141535000Y-97700000D01*
X140265000Y-97700000D02*
X140265000Y-97100000D01*
%TO.C,C25*%
X158300000Y-125635000D02*
X157700000Y-125635000D01*
X157700000Y-124365000D02*
X158300000Y-124365000D01*
%TO.C,L3*%
X135635000Y-89200000D02*
X135635000Y-89800000D01*
X134365000Y-89800000D02*
X134365000Y-89200000D01*
D15*
%TO.C,C37*%
X152250000Y-99025000D02*
X150250000Y-99025000D01*
X150250000Y-101975000D02*
X152250000Y-101975000D01*
D11*
%TO.C,C1*%
X128950000Y-92615000D02*
X129550000Y-92615000D01*
X129550000Y-93885000D02*
X128950000Y-93885000D01*
%TO.C,C4*%
X140635000Y-90700000D02*
X140635000Y-91300000D01*
X139365000Y-91300000D02*
X139365000Y-90700000D01*
%TO.C,U1*%
X132950000Y-93000000D02*
X132500000Y-93000000D01*
X132500000Y-98550000D02*
X132500000Y-99000000D01*
X138500000Y-93250000D02*
X138500000Y-93450000D01*
X132500000Y-99000000D02*
X132950000Y-99000000D01*
X132500000Y-93000000D02*
X132500000Y-93450000D01*
X138050000Y-93000000D02*
X138250000Y-93000000D01*
X138050000Y-99000000D02*
X138500000Y-99000000D01*
X138500000Y-99000000D02*
X138500000Y-98550000D01*
X138750000Y-93000000D02*
G75*
G03*
X138750000Y-93000000I-250000J0D01*
G01*
%TO.C,R22*%
X147950000Y-112615000D02*
X148550000Y-112615000D01*
X148550000Y-113885000D02*
X147950000Y-113885000D01*
%TO.C,C35*%
X129550000Y-113735000D02*
X128950000Y-113735000D01*
X128950000Y-112465000D02*
X129550000Y-112465000D01*
D12*
%TO.C,U2*%
X133722000Y-101833000D02*
X133595000Y-101833000D01*
X133595000Y-101833000D02*
X133595000Y-107167000D01*
X137405000Y-101833000D02*
X133722000Y-101833000D01*
X134992000Y-102341000D02*
X134992000Y-101833000D01*
X136008000Y-102341000D02*
X134992000Y-102341000D01*
X137405000Y-107167000D02*
X133595000Y-107167000D01*
X137405000Y-107167000D02*
X137405000Y-101833000D01*
X136008000Y-101833000D02*
X136008000Y-102341000D01*
D11*
%TO.C,C12*%
X136200000Y-92135000D02*
X135600000Y-92135000D01*
X135600000Y-90865000D02*
X136200000Y-90865000D01*
%TO.C,R7*%
X135700000Y-129115000D02*
X136300000Y-129115000D01*
X136300000Y-130385000D02*
X135700000Y-130385000D01*
%TO.C,R9*%
X139550000Y-129385000D02*
X138950000Y-129385000D01*
X138950000Y-128115000D02*
X139550000Y-128115000D01*
D15*
%TO.C,C36*%
X129500000Y-109275000D02*
X127500000Y-109275000D01*
X127500000Y-112225000D02*
X129500000Y-112225000D01*
D11*
%TO.C,R26*%
X164545000Y-97150000D02*
X164545000Y-96550000D01*
X165815000Y-96550000D02*
X165815000Y-97150000D01*
D13*
%TO.C,P1*%
X125460000Y-131790000D02*
X125460000Y-126710000D01*
D16*
X125460000Y-126710000D02*
X130540000Y-126710000D01*
D13*
X130540000Y-131790000D02*
X125460000Y-131790000D01*
X130540000Y-126710000D02*
X130540000Y-131790000D01*
D11*
%TO.C,C20*%
X151080000Y-122738000D02*
X151920000Y-122738000D01*
X151920000Y-124262000D02*
X151080000Y-124262000D01*
%TO.C,R25*%
X162005000Y-97150000D02*
X162005000Y-96550000D01*
X163275000Y-96550000D02*
X163275000Y-97150000D01*
%TO.C,R18*%
X139050000Y-119635000D02*
X138450000Y-119635000D01*
X138450000Y-118365000D02*
X139050000Y-118365000D01*
D14*
%TO.C,agilack-11.5*%
X169414720Y-119901760D02*
X169414720Y-119546160D01*
X169338520Y-121527360D02*
X169338520Y-121324160D01*
X169465520Y-123381560D02*
X169465520Y-123203760D01*
X169389320Y-123381560D02*
X169389320Y-123203760D01*
X170735520Y-118758760D02*
X170735520Y-118377760D01*
X170075120Y-114567760D02*
X170075120Y-114186760D01*
X169795720Y-115685360D02*
X169795720Y-115431360D01*
X169922720Y-117666560D02*
X169922720Y-117412560D01*
X169897320Y-115736160D02*
X169897320Y-114821760D01*
X169795720Y-120079560D02*
X169795720Y-119698560D01*
X169211520Y-112459560D02*
X169211520Y-112129360D01*
X168982920Y-123381560D02*
X168982920Y-123076760D01*
X169770320Y-115126560D02*
X169770320Y-114847160D01*
X169998920Y-123381560D02*
X169998920Y-123203760D01*
X170176720Y-114999560D02*
X170176720Y-114694760D01*
X169109920Y-113094560D02*
X169109920Y-112840560D01*
X169948120Y-118657160D02*
X169948120Y-118377760D01*
X169186120Y-114415360D02*
X169186120Y-113475560D01*
X169592520Y-121705160D02*
X169592520Y-121603560D01*
X169059120Y-117107760D02*
X169059120Y-116853760D01*
X170278320Y-117107760D02*
X170278320Y-116853760D01*
X170252920Y-119012760D02*
X170252920Y-118631760D01*
X170532320Y-122975160D02*
X170532320Y-121298760D01*
X170760920Y-118758760D02*
X170760920Y-118377760D01*
X169592520Y-115202760D02*
X169592520Y-114923360D01*
X170354520Y-118403160D02*
X170354520Y-117514160D01*
X169109920Y-123381560D02*
X169109920Y-123190000D01*
X169414720Y-123381560D02*
X169414720Y-123203760D01*
X170075120Y-118631760D02*
X170075120Y-118276160D01*
X168728920Y-122746560D02*
X168728920Y-121070160D01*
X169643320Y-120003360D02*
X169643320Y-119647760D01*
X169617920Y-121705160D02*
X169617920Y-121628960D01*
X170405320Y-118326960D02*
X170405320Y-117590360D01*
X168881320Y-122898960D02*
X168881320Y-121222560D01*
X170278320Y-122721160D02*
X170278320Y-121070160D01*
X169236920Y-115482160D02*
X169236920Y-115050360D01*
X169262320Y-117107760D02*
X169262320Y-116853760D01*
X170125920Y-117107760D02*
X170125920Y-116853760D01*
X169490920Y-119393760D02*
X169490920Y-119038160D01*
X169668720Y-113094560D02*
X169668720Y-112561160D01*
X170252920Y-123381560D02*
X170252920Y-123203760D01*
X169084520Y-113094560D02*
X169084520Y-112840560D01*
X169617920Y-118682560D02*
X169617920Y-118403160D01*
X169033720Y-112307160D02*
X169033720Y-111951560D01*
X169871920Y-121730560D02*
X169871920Y-121070160D01*
X170506920Y-120612960D02*
X170506920Y-119139760D01*
X169795720Y-118047560D02*
X169795720Y-117412560D01*
X170354520Y-114923360D02*
X170354520Y-114643960D01*
X170024320Y-115761560D02*
X170024320Y-114770960D01*
X170252920Y-123025960D02*
X170252920Y-122848160D01*
X169617920Y-114618560D02*
X169617920Y-114339160D01*
X169389320Y-119444560D02*
X169389320Y-119088960D01*
X170278320Y-118479360D02*
X170278320Y-117412560D01*
X170227520Y-118530160D02*
X170227520Y-117412560D01*
X169998920Y-117666560D02*
X169998920Y-117412560D01*
X169744920Y-114618560D02*
X169744920Y-114339160D01*
X170278320Y-118987360D02*
X170278320Y-118631760D01*
X169821120Y-115126560D02*
X169821120Y-114847160D01*
X170405320Y-114186760D02*
X170405320Y-113577160D01*
X170151320Y-116675960D02*
X170151320Y-116421960D01*
X170379920Y-117107760D02*
X170379920Y-116853760D01*
X169363920Y-114542360D02*
X169363920Y-114186760D01*
X169897320Y-120130360D02*
X169897320Y-119749360D01*
X170202120Y-123381560D02*
X170202120Y-123203760D01*
X170329120Y-116675960D02*
X170329120Y-115609160D01*
X170049720Y-118631760D02*
X170049720Y-118301560D01*
X170100520Y-112561160D02*
X170100520Y-112205560D01*
X170125920Y-120257360D02*
X170125920Y-119215960D01*
X169719520Y-114618560D02*
X169719520Y-114339160D01*
X170151320Y-118580960D02*
X170151320Y-118199960D01*
X169719520Y-115659960D02*
X169719520Y-115405960D01*
X170151320Y-112510360D02*
X170151320Y-112154760D01*
X170303720Y-118479360D02*
X170303720Y-117437960D01*
X169414720Y-112637360D02*
X169414720Y-112307160D01*
X169948120Y-117107760D02*
X169948120Y-116853760D01*
X169871920Y-112738960D02*
X169871920Y-112408760D01*
X169592520Y-116675960D02*
X169592520Y-116421960D01*
X170227520Y-123000560D02*
X170227520Y-122822760D01*
X169770320Y-117107760D02*
X169770320Y-116853760D01*
X169897320Y-112738960D02*
X169897320Y-112383360D01*
X170151320Y-114999560D02*
X170151320Y-114720160D01*
X169871920Y-118682560D02*
X169871920Y-118403160D01*
X169897320Y-117666560D02*
X169897320Y-117412560D01*
X169516320Y-122263960D02*
X169516320Y-121933760D01*
X169998920Y-113094560D02*
X169998920Y-112840560D01*
X170303720Y-116675960D02*
X170303720Y-115609160D01*
X168728920Y-119546160D02*
X168728920Y-119419160D01*
X170506920Y-123127560D02*
X170506920Y-123102160D01*
X169160720Y-121349560D02*
X169160720Y-121146360D01*
X170151320Y-120257360D02*
X170151320Y-119215960D01*
X169541720Y-117107760D02*
X169541720Y-116853760D01*
X169160720Y-123381560D02*
X169160720Y-123203760D01*
X169160720Y-118403160D02*
X169160720Y-117488760D01*
X169109920Y-123127560D02*
X169109920Y-121451160D01*
X169059120Y-115431360D02*
X169059120Y-115126560D01*
X169922720Y-117107760D02*
X169922720Y-116853760D01*
X169922720Y-112713560D02*
X169922720Y-112357960D01*
X169541720Y-123127560D02*
X169541720Y-122492560D01*
X169973520Y-122416360D02*
X169973520Y-122390960D01*
X169846520Y-122314760D02*
X169846520Y-121882960D01*
X170811720Y-118733360D02*
X170811720Y-118352360D01*
X169719520Y-123127560D02*
X169719520Y-122670360D01*
X169135320Y-117107760D02*
X169135320Y-116853760D01*
X169363920Y-117107760D02*
X169363920Y-116853760D01*
X169694120Y-115151960D02*
X169694120Y-114872560D01*
X169592520Y-114618560D02*
X169592520Y-114339160D01*
X169694120Y-123127560D02*
X169694120Y-122644960D01*
X169008320Y-123025960D02*
X169008320Y-121349560D01*
X170075120Y-117666560D02*
X170075120Y-117412560D01*
X170100520Y-115024960D02*
X170100520Y-114745560D01*
X169643320Y-115634560D02*
X169643320Y-115380560D01*
X169059120Y-121247960D02*
X169059120Y-121070160D01*
X169541720Y-122289360D02*
X169541720Y-121908360D01*
X170125920Y-123381560D02*
X170125920Y-123203760D01*
X169338520Y-112586560D02*
X169338520Y-112230960D01*
X168805120Y-122822760D02*
X168805120Y-121146360D01*
X169541720Y-112764360D02*
X169541720Y-112434160D01*
X169668720Y-115177360D02*
X169668720Y-114897960D01*
X169338520Y-121197160D02*
X169338520Y-121070160D01*
X169516320Y-123381560D02*
X169516320Y-123203760D01*
X169160720Y-117107760D02*
X169160720Y-116853760D01*
X170049720Y-120206560D02*
X170049720Y-119266760D01*
X168754320Y-123152960D02*
X168754320Y-122848160D01*
X170100520Y-122873560D02*
X170100520Y-122695760D01*
X169033720Y-114110560D02*
X169033720Y-113653360D01*
X169643320Y-118682560D02*
X169643320Y-118403160D01*
X170024320Y-121882960D02*
X170024320Y-121070160D01*
X170151320Y-122594160D02*
X170151320Y-121070160D01*
X169287720Y-116675960D02*
X169287720Y-116421960D01*
X170252920Y-113094560D02*
X170252920Y-112840560D01*
X169236920Y-117107760D02*
X169236920Y-116853760D01*
X170176720Y-120282760D02*
X170176720Y-119190560D01*
X169770320Y-119241360D02*
X169770320Y-118885760D01*
X169059120Y-116675960D02*
X169059120Y-116421960D01*
X169490920Y-123381560D02*
X169490920Y-123203760D01*
X169567120Y-119977960D02*
X169567120Y-119596960D01*
X169465520Y-114593160D02*
X169465520Y-114262960D01*
X169922720Y-123127560D02*
X169922720Y-122873560D01*
X169567120Y-112789760D02*
X169567120Y-112459560D01*
X169821120Y-118047560D02*
X169821120Y-117412560D01*
X169059120Y-112332560D02*
X169059120Y-111976960D01*
X170303720Y-114948760D02*
X170303720Y-114669360D01*
X169313120Y-113094560D02*
X169313120Y-112840560D01*
X169541720Y-119368360D02*
X169541720Y-118987360D01*
X169084520Y-114237560D02*
X169084520Y-113500960D01*
X169414720Y-121273360D02*
X169414720Y-121070160D01*
X169389320Y-115532960D02*
X169389320Y-115278960D01*
X169846520Y-120104960D02*
X169846520Y-119723960D01*
X170379920Y-114262960D02*
X170379920Y-113500960D01*
X170303720Y-120333560D02*
X170303720Y-119139760D01*
X168627320Y-123025960D02*
X168627320Y-121222560D01*
X170837120Y-118707960D02*
X170837120Y-118326960D01*
X169516320Y-118657160D02*
X169516320Y-118352360D01*
X170176720Y-113094560D02*
X170176720Y-112840560D01*
X169643320Y-114618560D02*
X169643320Y-114339160D01*
X169617920Y-123127560D02*
X169617920Y-122568760D01*
X169541720Y-119952560D02*
X169541720Y-119596960D01*
X169973520Y-117107760D02*
X169973520Y-116853760D01*
X170329120Y-122771960D02*
X170329120Y-121095560D01*
X169338520Y-113094560D02*
X169338520Y-112840560D01*
X170049720Y-116675960D02*
X170049720Y-116421960D01*
X169668720Y-123381560D02*
X169668720Y-123203760D01*
X169871920Y-118047560D02*
X169871920Y-117412560D01*
X170430720Y-114110560D02*
X170430720Y-113678760D01*
X170329120Y-114339160D02*
X170329120Y-113424760D01*
X170176720Y-123381560D02*
X170176720Y-123203760D01*
X170379920Y-112307160D02*
X170379920Y-111951560D01*
X168779720Y-122797360D02*
X168779720Y-121120960D01*
X169465520Y-121654360D02*
X169465520Y-121451160D01*
X169948120Y-122213160D02*
X169948120Y-121984560D01*
X169795720Y-113094560D02*
X169795720Y-112840560D01*
X170151320Y-113094560D02*
X170151320Y-112840560D01*
X170583120Y-120612960D02*
X170583120Y-119139760D01*
X169973520Y-120181160D02*
X169973520Y-119800160D01*
X170176720Y-117717360D02*
X170176720Y-117412560D01*
X169567120Y-117107760D02*
X169567120Y-116853760D01*
X169719520Y-120054160D02*
X169719520Y-119673160D01*
X170405320Y-118936560D02*
X170405320Y-118555560D01*
X169973520Y-122746560D02*
X169973520Y-122568760D01*
X169871920Y-123381560D02*
X169871920Y-123203760D01*
X169490920Y-114593160D02*
X169490920Y-114288360D01*
X169236920Y-116675960D02*
X169236920Y-116421960D01*
X170659320Y-123127560D02*
X170659320Y-121425760D01*
X170278320Y-114948760D02*
X170278320Y-114669360D01*
X169998920Y-119139760D02*
X169998920Y-118758760D01*
X169973520Y-123381560D02*
X169973520Y-123203760D01*
X170125920Y-122568760D02*
X170125920Y-121070160D01*
X170506920Y-122949760D02*
X170506920Y-121273360D01*
X169262320Y-119825560D02*
X169262320Y-119139760D01*
X169948120Y-113094560D02*
X169948120Y-112840560D01*
X169262320Y-113094560D02*
X169262320Y-112840560D01*
X169948120Y-121806760D02*
X169948120Y-121070160D01*
X170024320Y-116675960D02*
X170024320Y-116421960D01*
X169541720Y-115202760D02*
X169541720Y-114948760D01*
X169516320Y-119952560D02*
X169516320Y-119571560D01*
X169338520Y-116675960D02*
X169338520Y-116421960D01*
X169287720Y-115507560D02*
X169287720Y-115024960D01*
X169313120Y-119850960D02*
X169313120Y-119495360D01*
X169363920Y-121222560D02*
X169363920Y-121070160D01*
X169160720Y-116675960D02*
X169160720Y-116421960D01*
X170075120Y-122848160D02*
X170075120Y-122670360D01*
X170633920Y-123076760D02*
X170633920Y-121400360D01*
X169033720Y-123051360D02*
X169033720Y-121374960D01*
X170405320Y-114897960D02*
X170405320Y-114618560D01*
X169440120Y-123127560D02*
X169440120Y-122390960D01*
X170202120Y-112459560D02*
X170202120Y-112103960D01*
X169973520Y-113094560D02*
X169973520Y-112840560D01*
X170354520Y-122797360D02*
X170354520Y-121120960D01*
X169059120Y-123076760D02*
X169059120Y-121400360D01*
X169719520Y-117107760D02*
X169719520Y-116853760D01*
X168703520Y-119546160D02*
X168703520Y-119419160D01*
X170075120Y-115024960D02*
X170075120Y-114745560D01*
X169236920Y-121425760D02*
X169236920Y-121222560D01*
X169948120Y-122721160D02*
X169948120Y-122543360D01*
X170176720Y-122949760D02*
X170176720Y-122771960D01*
X170049720Y-123127560D02*
X170049720Y-122975160D01*
X169795720Y-118682560D02*
X169795720Y-118403160D01*
X170100520Y-115812360D02*
X170100520Y-115532960D01*
X169846520Y-112764360D02*
X169846520Y-112434160D01*
X169389320Y-117107760D02*
X169389320Y-116853760D01*
X169567120Y-121425760D02*
X169567120Y-121070160D01*
X168703520Y-123102160D02*
X168703520Y-122797360D01*
X170252920Y-120308160D02*
X170252920Y-119165160D01*
X169592520Y-117107760D02*
X169592520Y-116853760D01*
X170075120Y-123381560D02*
X170075120Y-123203760D01*
X170329120Y-118961960D02*
X170329120Y-118606360D01*
X169643320Y-123127560D02*
X169643320Y-122594160D01*
X169668720Y-115634560D02*
X169668720Y-115380560D01*
X169567120Y-115609160D02*
X169567120Y-115355160D01*
X170252920Y-122695760D02*
X170252920Y-121070160D01*
X169084520Y-118276160D02*
X169084520Y-117666560D01*
X169033720Y-116675960D02*
X169033720Y-116421960D01*
X170329120Y-118428560D02*
X170329120Y-117463360D01*
X170430720Y-118250760D02*
X170430720Y-117666560D01*
X170710120Y-120612960D02*
X170710120Y-119139760D01*
X170125920Y-115812360D02*
X170125920Y-115532960D01*
X170227520Y-122670360D02*
X170227520Y-121070160D01*
X168830520Y-119596960D02*
X168830520Y-119368360D01*
X169592520Y-115609160D02*
X169592520Y-115355160D01*
X170913320Y-118682560D02*
X170913320Y-118301560D01*
X169948120Y-114593160D02*
X169948120Y-114288360D01*
X169770320Y-114618560D02*
X169770320Y-114339160D01*
X169795720Y-112815160D02*
X169795720Y-112484960D01*
X169338520Y-123381560D02*
X169338520Y-123203760D01*
X169592520Y-121451160D02*
X169592520Y-121070160D01*
X170379920Y-123127560D02*
X170379920Y-122975160D01*
X169490920Y-115228160D02*
X169490920Y-114948760D01*
X169109920Y-118326960D02*
X169109920Y-117590360D01*
X168855920Y-123254560D02*
X168855920Y-122949760D01*
X169363920Y-123127560D02*
X169363920Y-122289360D01*
X169617920Y-120003360D02*
X169617920Y-119622360D01*
X169490920Y-122238560D02*
X169490920Y-121959160D01*
X169313120Y-112561160D02*
X169313120Y-112230960D01*
X170151320Y-117691960D02*
X170151320Y-117412560D01*
X169186120Y-113094560D02*
X169186120Y-112840560D01*
X170354520Y-117107760D02*
X170354520Y-116853760D01*
X169160720Y-123127560D02*
X169160720Y-121501960D01*
X169084520Y-121273360D02*
X169084520Y-121070160D01*
X170151320Y-117107760D02*
X170151320Y-116853760D01*
X170303720Y-123076760D02*
X170303720Y-122898960D01*
X169617920Y-119317560D02*
X169617920Y-118961960D01*
X170176720Y-112484960D02*
X170176720Y-112129360D01*
X169541720Y-114618560D02*
X169541720Y-114313760D01*
X168855920Y-122873560D02*
X168855920Y-121197160D01*
X169668720Y-118682560D02*
X169668720Y-118403160D01*
X169363920Y-123381560D02*
X169363920Y-123203760D01*
X170024320Y-113094560D02*
X170024320Y-112840560D01*
X169592520Y-118682560D02*
X169592520Y-118377760D01*
X170125920Y-115024960D02*
X170125920Y-114720160D01*
X170227520Y-123381560D02*
X170227520Y-123203760D01*
X170557720Y-123000560D02*
X170557720Y-121324160D01*
X170227520Y-114466160D02*
X170227520Y-113475560D01*
X170659320Y-118809560D02*
X170659320Y-118428560D01*
X170075120Y-115786960D02*
X170075120Y-115507560D01*
X170710120Y-118784160D02*
X170710120Y-118403160D01*
X169313120Y-117107760D02*
X169313120Y-116853760D01*
X169922720Y-122263960D02*
X169922720Y-121959160D01*
X170430720Y-122873560D02*
X170430720Y-121197160D01*
X170125920Y-122898960D02*
X170125920Y-122721160D01*
X169744920Y-115659960D02*
X169744920Y-115405960D01*
X169744920Y-122340160D02*
X169744920Y-121857560D01*
X169998920Y-114593160D02*
X169998920Y-114262960D01*
X169821120Y-118682560D02*
X169821120Y-118403160D01*
X169440120Y-118631760D02*
X169440120Y-118301560D01*
X170125920Y-114516960D02*
X170125920Y-114135960D01*
X170202120Y-113094560D02*
X170202120Y-112840560D01*
X169592520Y-119342960D02*
X169592520Y-118961960D01*
X169668720Y-118047560D02*
X169668720Y-117412560D01*
X169084520Y-117107760D02*
X169084520Y-116853760D01*
X169922720Y-114618560D02*
X169922720Y-114313760D01*
X170354520Y-114288360D02*
X170354520Y-113424760D01*
X170379920Y-113094560D02*
X170379920Y-112840560D01*
X170887920Y-118682560D02*
X170887920Y-118301560D01*
X170100520Y-123381560D02*
X170100520Y-123203760D01*
X169567120Y-114618560D02*
X169567120Y-114313760D01*
X169160720Y-112434160D02*
X169160720Y-112078560D01*
X169668720Y-119292160D02*
X169668720Y-118936560D01*
X170379920Y-123381560D02*
X170379920Y-123305360D01*
X169363920Y-121552760D02*
X169363920Y-121349560D01*
X169516320Y-113094560D02*
X169516320Y-112840560D01*
X169643320Y-119317560D02*
X169643320Y-118936560D01*
X169846520Y-116675960D02*
X169846520Y-116421960D01*
X170202120Y-114999560D02*
X170202120Y-114694760D01*
X168728920Y-123127560D02*
X168728920Y-122822760D01*
X169135320Y-113094560D02*
X169135320Y-112840560D01*
X170456120Y-118174560D02*
X170456120Y-117742760D01*
X169694120Y-116675960D02*
X169694120Y-116421960D01*
X170151320Y-123127560D02*
X170151320Y-123076760D01*
X169998920Y-122441760D02*
X169998920Y-122365560D01*
X169998920Y-115761560D02*
X169998920Y-114770960D01*
X168957520Y-122975160D02*
X168957520Y-121298760D01*
X169490920Y-112713560D02*
X169490920Y-112383360D01*
X170684720Y-120612960D02*
X170684720Y-119139760D01*
X169465520Y-121324160D02*
X169465520Y-121070160D01*
X169490920Y-113094560D02*
X169490920Y-112840560D01*
X170049720Y-112586560D02*
X170049720Y-112256360D01*
X170024320Y-118657160D02*
X170024320Y-118326960D01*
X169211520Y-123127560D02*
X169211520Y-121552760D01*
X169592520Y-112815160D02*
X169592520Y-112484960D01*
X169795720Y-121654360D02*
X169795720Y-121070160D01*
X169973520Y-123127560D02*
X169973520Y-122898960D01*
X169617920Y-121476560D02*
X169617920Y-121070160D01*
X170100520Y-113094560D02*
X170100520Y-112840560D01*
X170202120Y-114466160D02*
X170202120Y-113475560D01*
X169465520Y-112688160D02*
X169465520Y-112357960D01*
X169694120Y-114618560D02*
X169694120Y-114339160D01*
X169846520Y-119215960D02*
X169846520Y-118834960D01*
X169516320Y-117107760D02*
X169516320Y-116853760D01*
X169770320Y-118047560D02*
X169770320Y-117412560D01*
X170024320Y-122467160D02*
X170024320Y-122340160D01*
X169160720Y-113094560D02*
X169160720Y-112840560D01*
X169465520Y-116675960D02*
X169465520Y-116421960D01*
X169338520Y-114542360D02*
X169338520Y-114135960D01*
X169694120Y-123381560D02*
X169694120Y-123203760D01*
X169287720Y-117107760D02*
X169287720Y-116853760D01*
X169592520Y-123127560D02*
X169592520Y-122543360D01*
X169109920Y-114288360D02*
X169109920Y-113450160D01*
X168957520Y-121146360D02*
X168957520Y-121070160D01*
X169744920Y-116675960D02*
X169744920Y-116421960D01*
X170532320Y-118860360D02*
X170532320Y-118504760D01*
X169719520Y-121578160D02*
X169719520Y-121070160D01*
X169643320Y-121705160D02*
X169643320Y-121654360D01*
X169592520Y-123381560D02*
X169592520Y-123203760D01*
X169490920Y-118657160D02*
X169490920Y-118352360D01*
X169719520Y-115151960D02*
X169719520Y-114872560D01*
X169846520Y-113094560D02*
X169846520Y-112840560D01*
X169516320Y-123127560D02*
X169516320Y-122467160D01*
X168805120Y-123203760D02*
X168805120Y-122898960D01*
X169186120Y-117107760D02*
X169186120Y-116853760D01*
X170100520Y-122543360D02*
X170100520Y-122162360D01*
X169389320Y-115253560D02*
X169389320Y-114999560D01*
X169567120Y-115202760D02*
X169567120Y-114923360D01*
X168601920Y-123000560D02*
X168601920Y-121222560D01*
X169744920Y-120054160D02*
X169744920Y-119698560D01*
X169084520Y-116675960D02*
X169084520Y-116421960D01*
X169592520Y-122314760D02*
X169592520Y-121882960D01*
X169389320Y-118606360D02*
X169389320Y-118250760D01*
X169541720Y-123381560D02*
X169541720Y-123203760D01*
X169033720Y-117107760D02*
X169033720Y-116853760D01*
X168932120Y-123330760D02*
X168932120Y-123025960D01*
X169821120Y-113094560D02*
X169821120Y-112840560D01*
X169008320Y-121197160D02*
X169008320Y-121070160D01*
X170100520Y-116675960D02*
X170100520Y-116421960D01*
X170354520Y-116675960D02*
X170354520Y-115609160D01*
X169363920Y-117641160D02*
X169363920Y-117539560D01*
X169694120Y-113094560D02*
X169694120Y-112561160D01*
X169262320Y-123381560D02*
X169262320Y-123203760D01*
X169465520Y-122187760D02*
X169465520Y-122009960D01*
X169287720Y-121146360D02*
X169287720Y-121070160D01*
X168576520Y-122975160D02*
X168576520Y-121222560D01*
X169313120Y-115507560D02*
X169313120Y-115024960D01*
X169617920Y-122340160D02*
X169617920Y-121882960D01*
X169135320Y-123381560D02*
X169135320Y-123203760D01*
X170303720Y-112383360D02*
X170303720Y-112027760D01*
X169821120Y-123127560D02*
X169821120Y-122771960D01*
X169186120Y-121374960D02*
X169186120Y-121171760D01*
X169694120Y-115659960D02*
X169694120Y-115380560D01*
X169567120Y-113094560D02*
X169567120Y-112840560D01*
X169719520Y-118682560D02*
X169719520Y-118403160D01*
X169338520Y-123127560D02*
X169338520Y-122213160D01*
X169770320Y-120079560D02*
X169770320Y-119698560D01*
X169846520Y-123127560D02*
X169846520Y-122797360D01*
X169287720Y-123127560D02*
X169287720Y-121628960D01*
X169744920Y-122517960D02*
X169744920Y-122492560D01*
X169897320Y-116675960D02*
X169897320Y-116421960D01*
X170329120Y-114948760D02*
X170329120Y-114643960D01*
X169211520Y-118479360D02*
X169211520Y-117463360D01*
X169059120Y-114186760D02*
X169059120Y-113551760D01*
X169770320Y-123127560D02*
X169770320Y-122721160D01*
X170024320Y-119114360D02*
X170024320Y-118758760D01*
X169440120Y-123381560D02*
X169440120Y-123203760D01*
X169795720Y-122568760D02*
X169795720Y-122492560D01*
X170481520Y-118885760D02*
X170481520Y-118530160D01*
X169313120Y-116675960D02*
X169313120Y-116421960D01*
X169084520Y-123381560D02*
X169084520Y-123170000D01*
X170379920Y-118936560D02*
X170379920Y-118580960D01*
X169719520Y-122340160D02*
X169719520Y-121857560D01*
X170049720Y-121908360D02*
X170049720Y-121070160D01*
X170024320Y-120206560D02*
X170024320Y-119266760D01*
X168678120Y-119520760D02*
X168678120Y-119444560D01*
X169414720Y-115558360D02*
X169414720Y-115304360D01*
X170278320Y-114415360D02*
X170278320Y-113450160D01*
X169643320Y-122340160D02*
X169643320Y-121857560D01*
X170202120Y-120282760D02*
X170202120Y-119190560D01*
X169897320Y-121755960D02*
X169897320Y-121070160D01*
X170329120Y-113094560D02*
X170329120Y-112840560D01*
X169490920Y-121679760D02*
X169490920Y-121476560D01*
X169592520Y-113094560D02*
X169592520Y-112840560D01*
X169846520Y-118682560D02*
X169846520Y-118403160D01*
X169668720Y-123127560D02*
X169668720Y-122619560D01*
X169236920Y-123381560D02*
X169236920Y-123203760D01*
X169871920Y-116675960D02*
X169871920Y-116421960D01*
X169922720Y-116675960D02*
X169922720Y-116421960D01*
X169414720Y-114567760D02*
X169414720Y-114237560D01*
X170227520Y-120308160D02*
X170227520Y-119165160D01*
X169643320Y-117107760D02*
X169643320Y-116853760D01*
X169744920Y-115151960D02*
X169744920Y-114872560D01*
X169998920Y-122771960D02*
X169998920Y-122594160D01*
X169846520Y-114618560D02*
X169846520Y-114339160D01*
X169389320Y-117590360D02*
X169389320Y-117564960D01*
X169973520Y-117666560D02*
X169973520Y-117412560D01*
X169084520Y-112357960D02*
X169084520Y-112002360D01*
X169694120Y-121552760D02*
X169694120Y-121070160D01*
X169694120Y-118682560D02*
X169694120Y-118403160D01*
X169821120Y-121679760D02*
X169821120Y-121070160D01*
X169567120Y-123127560D02*
X169567120Y-122517960D01*
X170633920Y-120612960D02*
X170633920Y-119139760D01*
X170176720Y-113678760D02*
X170176720Y-113500960D01*
X170202120Y-122644960D02*
X170202120Y-121070160D01*
X170024320Y-117666560D02*
X170024320Y-117412560D01*
X169998920Y-121832160D02*
X169998920Y-121070160D01*
X169922720Y-122695760D02*
X169922720Y-122517960D01*
X169821120Y-119215960D02*
X169821120Y-118860360D01*
X168652720Y-123051360D02*
X168652720Y-122746560D01*
X169948120Y-123127560D02*
X169948120Y-122898960D01*
X170227520Y-112434160D02*
X170227520Y-112078560D01*
X170583120Y-118834960D02*
X170583120Y-118479360D01*
X169821120Y-116675960D02*
X169821120Y-116421960D01*
X169490920Y-116675960D02*
X169490920Y-116421960D01*
X170405320Y-117107760D02*
X170405320Y-116853760D01*
X169414720Y-121857560D02*
X169414720Y-121755960D01*
X170176720Y-114491560D02*
X170176720Y-114008960D01*
X170100520Y-120231960D02*
X170100520Y-119241360D01*
X169897320Y-123381560D02*
X169897320Y-123203760D01*
X169592520Y-119977960D02*
X169592520Y-119622360D01*
X169287720Y-113678760D02*
X169287720Y-113500960D01*
X170506920Y-118885760D02*
X170506920Y-118504760D01*
X170481520Y-122924360D02*
X170481520Y-121247960D01*
X169262320Y-121120960D02*
X169262320Y-121070160D01*
X170354520Y-123381560D02*
X170354520Y-123279960D01*
X169821120Y-114618560D02*
X169821120Y-114339160D01*
X169516320Y-115583760D02*
X169516320Y-115329760D01*
X169871920Y-119190560D02*
X169871920Y-118834960D01*
X170100520Y-114542360D02*
X170100520Y-114161360D01*
X169262320Y-114466160D02*
X169262320Y-113500960D01*
X169744920Y-118682560D02*
X169744920Y-118403160D01*
X169135320Y-116675960D02*
X169135320Y-116421960D01*
X169694120Y-119292160D02*
X169694120Y-118911160D01*
X169922720Y-123381560D02*
X169922720Y-123203760D01*
X169186120Y-116675960D02*
X169186120Y-116421960D01*
X170100520Y-118606360D02*
X170100520Y-118250760D01*
X168982920Y-119673160D02*
X168982920Y-119292160D01*
X169109920Y-121298760D02*
X169109920Y-121070160D01*
X170303720Y-122746560D02*
X170303720Y-121070160D01*
X170151320Y-115812360D02*
X170151320Y-115532960D01*
X169643320Y-113094560D02*
X169643320Y-112535760D01*
X168982920Y-123000560D02*
X168982920Y-121324160D01*
X169770320Y-121628960D02*
X169770320Y-121070160D01*
X169440120Y-114593160D02*
X169440120Y-114262960D01*
X170608520Y-123051360D02*
X170608520Y-121374960D01*
X170329120Y-112357960D02*
X170329120Y-112002360D01*
X169363920Y-118606360D02*
X169363920Y-118199960D01*
X169363920Y-119876360D02*
X169363920Y-119520760D01*
X169897320Y-117107760D02*
X169897320Y-116853760D01*
X170176720Y-116675960D02*
X170176720Y-116421960D01*
X169363920Y-112611960D02*
X169363920Y-112256360D01*
X169541720Y-113094560D02*
X169541720Y-112840560D01*
X170786320Y-118733360D02*
X170786320Y-118352360D01*
X168932120Y-122949760D02*
X168932120Y-121273360D01*
X170278320Y-123381560D02*
X170278320Y-123203760D01*
X169719520Y-116675960D02*
X169719520Y-116421960D01*
X169541720Y-121400360D02*
X169541720Y-121070160D01*
X169719520Y-123381560D02*
X169719520Y-123203760D01*
X169059120Y-118174560D02*
X169059120Y-117742760D01*
X169465520Y-117107760D02*
X169465520Y-116853760D01*
X169770320Y-118682560D02*
X169770320Y-118403160D01*
X169821120Y-117107760D02*
X169821120Y-116853760D01*
X169567120Y-123381560D02*
X169567120Y-123203760D01*
X168906720Y-122924360D02*
X168906720Y-121247960D01*
X169414720Y-117107760D02*
X169414720Y-116853760D01*
X169846520Y-117107760D02*
X169846520Y-116853760D01*
X169770320Y-116675960D02*
X169770320Y-116421960D01*
X169033720Y-123381560D02*
X169033720Y-123130000D01*
X170125920Y-116675960D02*
X170125920Y-116421960D01*
X169490920Y-121349560D02*
X169490920Y-121070160D01*
X169389320Y-113094560D02*
X169389320Y-112840560D01*
X170049720Y-114567760D02*
X170049720Y-114212160D01*
X169770320Y-122543360D02*
X169770320Y-122492560D01*
X169059120Y-123381560D02*
X169059120Y-123152960D01*
X169363920Y-113094560D02*
X169363920Y-112840560D01*
X170075120Y-116675960D02*
X170075120Y-116421960D01*
X170862520Y-118707960D02*
X170862520Y-118326960D01*
X169871920Y-120130360D02*
X169871920Y-119749360D01*
X169414720Y-113094560D02*
X169414720Y-112840560D01*
X168805120Y-119596960D02*
X168805120Y-119368360D01*
X169084520Y-119723960D02*
X169084520Y-119241360D01*
X169465520Y-123127560D02*
X169465520Y-122416360D01*
X170608520Y-118834960D02*
X170608520Y-118453960D01*
X170125920Y-123127560D02*
X170125920Y-123051360D01*
X169440120Y-117107760D02*
X169440120Y-116853760D01*
X169922720Y-118682560D02*
X169922720Y-118377760D01*
X170303720Y-123381560D02*
X170303720Y-123229160D01*
X169389320Y-116675960D02*
X169389320Y-116421960D01*
X169211520Y-119800160D02*
X169211520Y-119165160D01*
X169160720Y-119774760D02*
X169160720Y-119190560D01*
X170354520Y-113094560D02*
X170354520Y-112840560D01*
X169465520Y-118657160D02*
X169465520Y-118326960D01*
X169516320Y-115228160D02*
X169516320Y-114948760D01*
X170481520Y-123127560D02*
X170481520Y-123076760D01*
X170125920Y-117666560D02*
X170125920Y-117412560D01*
X169414720Y-119419160D02*
X169414720Y-119063560D01*
X169033720Y-121222560D02*
X169033720Y-121070160D01*
X170659320Y-120612960D02*
X170659320Y-119139760D01*
X169948120Y-119165160D02*
X169948120Y-118784160D01*
X169668720Y-114618560D02*
X169668720Y-114339160D01*
X169871920Y-123127560D02*
X169871920Y-122822760D01*
X169948120Y-116675960D02*
X169948120Y-116421960D01*
X170557720Y-118860360D02*
X170557720Y-118479360D01*
X169236920Y-112484960D02*
X169236920Y-112154760D01*
X170303720Y-114364560D02*
X170303720Y-113450160D01*
X170100520Y-119088960D02*
X170100520Y-118707960D01*
X169211520Y-114440760D02*
X169211520Y-113475560D01*
X170405320Y-116675960D02*
X170405320Y-115634560D01*
X169541720Y-116675960D02*
X169541720Y-116421960D01*
X170354520Y-118961960D02*
X170354520Y-118580960D01*
X169490920Y-117107760D02*
X169490920Y-116853760D01*
X169465520Y-115558360D02*
X169465520Y-115304360D01*
X169363920Y-115532960D02*
X169363920Y-114999560D01*
X170151320Y-122924360D02*
X170151320Y-122746560D01*
X170329120Y-117107760D02*
X170329120Y-116853760D01*
X169897320Y-122289360D02*
X169897320Y-121908360D01*
X170151320Y-123381560D02*
X170151320Y-123203760D01*
X169617920Y-113094560D02*
X169617920Y-112840560D01*
X169211520Y-117107760D02*
X169211520Y-116853760D01*
X169668720Y-120028760D02*
X169668720Y-119647760D01*
X169516320Y-119368360D02*
X169516320Y-119012760D01*
X170176720Y-115837760D02*
X170176720Y-115558360D01*
X169414720Y-123127560D02*
X169414720Y-122365560D01*
X170278320Y-113094560D02*
X170278320Y-112840560D01*
X169973520Y-122136960D02*
X169973520Y-122086160D01*
X169363920Y-116675960D02*
X169363920Y-116421960D01*
X169516320Y-112738960D02*
X169516320Y-112408760D01*
X169871920Y-122644960D02*
X169871920Y-122492560D01*
X169643320Y-115177360D02*
X169643320Y-114897960D01*
X169211520Y-123381560D02*
X169211520Y-123203760D01*
X169541720Y-115609160D02*
X169541720Y-115329760D01*
X169694120Y-122340160D02*
X169694120Y-121857560D01*
X169287720Y-118555560D02*
X169287720Y-117514160D01*
X170329120Y-123381560D02*
X170329120Y-123254560D01*
X170075120Y-120231960D02*
X170075120Y-119241360D01*
X169236920Y-123127560D02*
X169236920Y-121578160D01*
X169186120Y-119774760D02*
X169186120Y-119190560D01*
X170354520Y-112332560D02*
X170354520Y-111976960D01*
X169871920Y-114618560D02*
X169871920Y-114313760D01*
X168779720Y-119571560D02*
X168779720Y-119393760D01*
X169414720Y-121603560D02*
X169414720Y-121400360D01*
X169922720Y-115736160D02*
X169922720Y-114796360D01*
X169389320Y-121247960D02*
X169389320Y-121070160D01*
X169363920Y-119444560D02*
X169363920Y-119088960D01*
X170049720Y-123381560D02*
X170049720Y-123203760D01*
X170024320Y-114567760D02*
X170024320Y-114237560D01*
X169287720Y-119825560D02*
X169287720Y-119139760D01*
X170049720Y-115786960D02*
X170049720Y-114745560D01*
X170100520Y-123127560D02*
X170100520Y-123025960D01*
X169668720Y-122340160D02*
X169668720Y-121857560D01*
X169795720Y-119241360D02*
X169795720Y-118860360D01*
X169719520Y-119266760D02*
X169719520Y-118911160D01*
X169567120Y-121705160D02*
X169567120Y-121552760D01*
X169135320Y-121324160D02*
X169135320Y-121120960D01*
X169440120Y-121298760D02*
X169440120Y-121070160D01*
X169338520Y-117691960D02*
X169338520Y-117539560D01*
X170303720Y-117107760D02*
X170303720Y-116853760D01*
X170557720Y-120612960D02*
X170557720Y-119139760D01*
X169668720Y-121705160D02*
X169668720Y-121679760D01*
X170176720Y-117107760D02*
X170176720Y-116853760D01*
X168551120Y-122949760D02*
X168551120Y-121222560D01*
X169973520Y-116675960D02*
X169973520Y-116421960D01*
X169236920Y-119800160D02*
X169236920Y-119165160D01*
X169262320Y-118530160D02*
X169262320Y-117488760D01*
X169262320Y-112510360D02*
X169262320Y-112180160D01*
X169795720Y-123381560D02*
X169795720Y-123203760D01*
X169414720Y-118631760D02*
X169414720Y-118276160D01*
X169287720Y-123381560D02*
X169287720Y-123203760D01*
X168906720Y-123305360D02*
X168906720Y-123000560D01*
X169135320Y-115456760D02*
X169135320Y-115101160D01*
X169389320Y-121578160D02*
X169389320Y-121374960D01*
X169287720Y-121476560D02*
X169287720Y-121273360D01*
X169998920Y-112637360D02*
X169998920Y-112281760D01*
X170583120Y-123025960D02*
X170583120Y-121349560D01*
X170379920Y-114923360D02*
X170379920Y-114643960D01*
X169744920Y-123127560D02*
X169744920Y-122695760D01*
X169033720Y-119698560D02*
X169033720Y-119266760D01*
X169109920Y-116675960D02*
X169109920Y-116421960D01*
X169465520Y-113094560D02*
X169465520Y-112840560D01*
X170176720Y-118580960D02*
X170176720Y-118149160D01*
X170202120Y-118555560D02*
X170202120Y-118072960D01*
X169973520Y-119139760D02*
X169973520Y-118784160D01*
X168932120Y-119647760D02*
X168932120Y-119317560D01*
X169846520Y-115710760D02*
X169846520Y-114821760D01*
X169668720Y-121527360D02*
X169668720Y-121070160D01*
X170075120Y-117107760D02*
X170075120Y-116853760D01*
X169744920Y-118047560D02*
X169744920Y-117412560D01*
X170278320Y-120333560D02*
X170278320Y-119139760D01*
X170303720Y-118987360D02*
X170303720Y-118606360D01*
X169313120Y-123127560D02*
X169313120Y-121654360D01*
X168779720Y-123178360D02*
X168779720Y-122873560D01*
X170202120Y-119038160D02*
X170202120Y-118657160D01*
X169440120Y-116675960D02*
X169440120Y-116421960D01*
X169516320Y-116675960D02*
X169516320Y-116421960D01*
X169389320Y-114567760D02*
X169389320Y-114212160D01*
X168881320Y-123279960D02*
X168881320Y-122975160D01*
X169948120Y-115736160D02*
X169948120Y-114796360D01*
X169795720Y-116675960D02*
X169795720Y-116421960D01*
X169821120Y-112789760D02*
X169821120Y-112459560D01*
X169744920Y-123381560D02*
X169744920Y-123203760D01*
X170125920Y-113094560D02*
X170125920Y-112840560D01*
X169998920Y-116675960D02*
X169998920Y-116421960D01*
X169236920Y-114466160D02*
X169236920Y-113500960D01*
X169109920Y-112383360D02*
X169109920Y-112027760D01*
X168754320Y-119571560D02*
X168754320Y-119393760D01*
X169440120Y-113094560D02*
X169440120Y-112840560D01*
X170176720Y-122619560D02*
X170176720Y-121070160D01*
X170176720Y-119038160D02*
X170176720Y-118682560D01*
X170354520Y-123127560D02*
X170354520Y-122949760D01*
X170379920Y-116675960D02*
X170379920Y-115634560D01*
X170151320Y-113602560D02*
X170151320Y-113500960D01*
X169821120Y-115710760D02*
X169821120Y-115431360D01*
X169186120Y-123127560D02*
X169186120Y-121527360D01*
X169668720Y-117107760D02*
X169668720Y-116853760D01*
X170100520Y-117666560D02*
X170100520Y-117412560D01*
X170252920Y-114440760D02*
X170252920Y-113450160D01*
X169440120Y-121832160D02*
X169440120Y-121781360D01*
X170202120Y-117107760D02*
X170202120Y-116853760D01*
X169313120Y-118555560D02*
X169313120Y-118098360D01*
X170049720Y-122822760D02*
X170049720Y-122644960D01*
X169516320Y-121705160D02*
X169516320Y-121501960D01*
X169846520Y-123381560D02*
X169846520Y-123203760D01*
X170710120Y-123127560D02*
X170710120Y-121476560D01*
X169363920Y-121933760D02*
X169363920Y-121705160D01*
X169490920Y-123127560D02*
X169490920Y-122441760D01*
X169948120Y-120155760D02*
X169948120Y-119774760D01*
X169186120Y-112459560D02*
X169186120Y-112103960D01*
X170202120Y-116675960D02*
X170202120Y-115558360D01*
X169998920Y-118657160D02*
X169998920Y-118326960D01*
X169338520Y-119850960D02*
X169338520Y-119495360D01*
X168500320Y-122898960D02*
X168500320Y-121222560D01*
X169516320Y-114593160D02*
X169516320Y-114288360D01*
X169160720Y-114364560D02*
X169160720Y-113450160D01*
X169567120Y-118682560D02*
X169567120Y-118377760D01*
X169897320Y-114618560D02*
X169897320Y-114313760D01*
X169795720Y-114618560D02*
X169795720Y-114339160D01*
X169973520Y-114593160D02*
X169973520Y-114288360D01*
X169617920Y-115634560D02*
X169617920Y-115355160D01*
X168830520Y-123229160D02*
X168830520Y-122924360D01*
X170100520Y-117107760D02*
X170100520Y-116853760D01*
X170024320Y-117107760D02*
X170024320Y-116853760D01*
X169541720Y-118657160D02*
X169541720Y-118377760D01*
X169821120Y-120104960D02*
X169821120Y-119723960D01*
X170075120Y-122517960D02*
X170075120Y-122238560D01*
X170125920Y-118606360D02*
X170125920Y-118225360D01*
X170075120Y-112586560D02*
X170075120Y-112230960D01*
X169262320Y-121451160D02*
X169262320Y-121247960D01*
X170252920Y-112408760D02*
X170252920Y-112053160D01*
X168652720Y-119520760D02*
X168652720Y-119444560D01*
X169617920Y-123381560D02*
X169617920Y-123203760D01*
X170024320Y-112611960D02*
X170024320Y-112256360D01*
X169313120Y-117793560D02*
X169313120Y-117514160D01*
X168830520Y-122848160D02*
X168830520Y-121171760D01*
X169516320Y-121374960D02*
X169516320Y-121070160D01*
X169897320Y-122670360D02*
X169897320Y-122492560D01*
X169795720Y-115126560D02*
X169795720Y-114847160D01*
X169059120Y-119723960D02*
X169059120Y-119241360D01*
X169211520Y-113094560D02*
X169211520Y-112840560D01*
X169998920Y-120181160D02*
X169998920Y-119800160D01*
X169922720Y-113094560D02*
X169922720Y-112840560D01*
X170024320Y-123127560D02*
X170024320Y-122949760D01*
X170252920Y-117107760D02*
X170252920Y-116853760D01*
X169084520Y-115431360D02*
X169084520Y-115101160D01*
X169135320Y-119749360D02*
X169135320Y-119215960D01*
X170252920Y-114974160D02*
X170252920Y-114669360D01*
X169871920Y-122314760D02*
X169871920Y-121908360D01*
X169338520Y-119469960D02*
X169338520Y-119114360D01*
X169770320Y-123381560D02*
X169770320Y-123203760D01*
X169922720Y-119165160D02*
X169922720Y-118809560D01*
X170405320Y-122848160D02*
X170405320Y-121171760D01*
X170227520Y-114974160D02*
X170227520Y-114694760D01*
X169617920Y-115177360D02*
X169617920Y-114923360D01*
X170735520Y-120612960D02*
X170735520Y-119139760D01*
X170456120Y-123127560D02*
X170456120Y-123051360D01*
X169922720Y-120155760D02*
X169922720Y-119774760D01*
X169338520Y-122009960D02*
X169338520Y-121679760D01*
X170684720Y-123127560D02*
X170684720Y-121451160D01*
X170049720Y-117107760D02*
X170049720Y-116853760D01*
X169135320Y-123127560D02*
X169135320Y-121476560D01*
X169109920Y-117107760D02*
X169109920Y-116853760D01*
X170202120Y-117793560D02*
X170202120Y-117412560D01*
X170608520Y-120612960D02*
X170608520Y-119139760D01*
X169617920Y-117107760D02*
X169617920Y-116853760D01*
X169744920Y-117107760D02*
X169744920Y-116853760D01*
X169871920Y-117107760D02*
X169871920Y-116853760D01*
X170151320Y-119063560D02*
X170151320Y-118682560D01*
X169465520Y-119393760D02*
X169465520Y-119038160D01*
X169871920Y-115710760D02*
X169871920Y-114821760D01*
X169313120Y-119469960D02*
X169313120Y-119114360D01*
X170100520Y-122060760D02*
X170100520Y-121070160D01*
X168982920Y-121146360D02*
X168982920Y-121070160D01*
X169998920Y-123127560D02*
X169998920Y-122924360D01*
X169795720Y-122340160D02*
X169795720Y-121857560D01*
X169744920Y-113094560D02*
X169744920Y-112510360D01*
X169973520Y-118657160D02*
X169973520Y-118352360D01*
X169414720Y-115253560D02*
X169414720Y-114974160D01*
X169084520Y-123102160D02*
X169084520Y-121425760D01*
X169694120Y-117107760D02*
X169694120Y-116853760D01*
X169948120Y-123381560D02*
X169948120Y-123203760D01*
X169770320Y-113094560D02*
X169770320Y-112484960D01*
X169440120Y-119901760D02*
X169440120Y-119546160D01*
X169008320Y-119698560D02*
X169008320Y-119266760D01*
X169389320Y-121882960D02*
X169389320Y-121730560D01*
X169236920Y-118504760D02*
X169236920Y-117463360D01*
X169948120Y-117666560D02*
X169948120Y-117412560D01*
X170227520Y-117107760D02*
X170227520Y-116853760D01*
X169795720Y-123127560D02*
X169795720Y-122746560D01*
X169897320Y-123127560D02*
X169897320Y-122848160D01*
X170075120Y-123127560D02*
X170075120Y-123000560D01*
X169389320Y-119876360D02*
X169389320Y-119520760D01*
X170379920Y-122822760D02*
X170379920Y-121146360D01*
X169770320Y-122340160D02*
X169770320Y-121857560D01*
X169160720Y-115456760D02*
X169160720Y-115075760D01*
X170684720Y-118784160D02*
X170684720Y-118403160D01*
X170405320Y-113094560D02*
X170405320Y-112840560D01*
X169135320Y-118377760D02*
X169135320Y-117539560D01*
X169948120Y-112688160D02*
X169948120Y-112332560D01*
X170456120Y-122898960D02*
X170456120Y-121222560D01*
X169617920Y-116675960D02*
X169617920Y-116421960D01*
X169313120Y-123381560D02*
X169313120Y-123203760D01*
X169490920Y-115583760D02*
X169490920Y-115329760D01*
X170125920Y-112535760D02*
X170125920Y-112180160D01*
X169440120Y-119419160D02*
X169440120Y-119063560D01*
X169313120Y-113602560D02*
X169313120Y-113526360D01*
X170049720Y-119114360D02*
X170049720Y-118733360D01*
X169846520Y-118047560D02*
X169846520Y-117412560D01*
X169109920Y-115431360D02*
X169109920Y-115101160D01*
X169211520Y-121400360D02*
X169211520Y-121197160D01*
X169744920Y-121603560D02*
X169744920Y-121070160D01*
X169643320Y-121501960D02*
X169643320Y-121070160D01*
X170252920Y-118504760D02*
X170252920Y-117412560D01*
X170252920Y-116675960D02*
X170252920Y-115583760D01*
X169821120Y-123381560D02*
X169821120Y-123203760D01*
X169719520Y-113094560D02*
X169719520Y-112535760D01*
X169694120Y-120028760D02*
X169694120Y-119673160D01*
X169643320Y-123381560D02*
X169643320Y-123203760D01*
X168627320Y-119495360D02*
X168627320Y-119469960D01*
X168855920Y-119622360D02*
X168855920Y-119342960D01*
X169567120Y-122314760D02*
X169567120Y-121882960D01*
X169186120Y-123381560D02*
X169186120Y-123203760D01*
X169821120Y-122340160D02*
X169821120Y-121882960D01*
X169973520Y-115761560D02*
X169973520Y-114770960D01*
X169744920Y-119266760D02*
X169744920Y-118885760D01*
X170049720Y-117666560D02*
X170049720Y-117412560D01*
X169262320Y-116675960D02*
X169262320Y-116421960D01*
X169465520Y-115228160D02*
X169465520Y-114974160D01*
X170430720Y-123127560D02*
X170430720Y-123025960D01*
X169211520Y-116675960D02*
X169211520Y-116421960D01*
X168881320Y-119622360D02*
X168881320Y-119342960D01*
X169846520Y-122619560D02*
X169846520Y-122492560D01*
X169897320Y-113094560D02*
X169897320Y-112840560D01*
X169541720Y-121705160D02*
X169541720Y-121527360D01*
X169465520Y-119927160D02*
X169465520Y-119546160D01*
X170278320Y-116675960D02*
X170278320Y-115583760D01*
X168957520Y-123356160D02*
X168957520Y-123051360D01*
X169313120Y-114516960D02*
X169313120Y-114085160D01*
X170075120Y-119088960D02*
X170075120Y-118733360D01*
X169262320Y-115482160D02*
X169262320Y-115050360D01*
X169135320Y-112408760D02*
X169135320Y-112053160D01*
X170303720Y-113094560D02*
X170303720Y-112840560D01*
X170405320Y-112281760D02*
X170405320Y-111926160D01*
X170405320Y-123127560D02*
X170405320Y-123000560D01*
X169465520Y-121806760D02*
X169465520Y-121781360D01*
X169033720Y-115405960D02*
X169033720Y-115126560D01*
X170938720Y-118657160D02*
X170938720Y-118276160D01*
X169770320Y-115685360D02*
X169770320Y-115405960D01*
X169414720Y-116675960D02*
X169414720Y-116421960D01*
X169897320Y-118682560D02*
X169897320Y-118377760D01*
X170227520Y-116675960D02*
X170227520Y-115583760D01*
X169440120Y-112662760D02*
X169440120Y-112332560D01*
X170379920Y-118377760D02*
X170379920Y-117539560D01*
X170024320Y-122797360D02*
X170024320Y-122619560D01*
X169973520Y-121806760D02*
X169973520Y-121070160D01*
X170633920Y-118809560D02*
X170633920Y-118428560D01*
X170329120Y-123127560D02*
X170329120Y-122924360D01*
X169998920Y-117107760D02*
X169998920Y-116853760D01*
X170202120Y-122975160D02*
X170202120Y-122797360D01*
X170532320Y-120612960D02*
X170532320Y-119139760D01*
X169846520Y-121705160D02*
X169846520Y-121070160D01*
X169186120Y-115456760D02*
X169186120Y-115075760D01*
X169922720Y-121781360D02*
X169922720Y-121070160D01*
X168754320Y-122771960D02*
X168754320Y-121070160D01*
X170430720Y-118911160D02*
X170430720Y-118555560D01*
X170329120Y-120333560D02*
X170329120Y-119139760D01*
X170049720Y-122492560D02*
X170049720Y-122314760D01*
X169109920Y-119749360D02*
X169109920Y-119215960D01*
X169287720Y-114491560D02*
X169287720Y-114034360D01*
X169338520Y-115532960D02*
X169338520Y-115024960D01*
X170125920Y-119063560D02*
X170125920Y-118707960D01*
X169059120Y-113094560D02*
X169059120Y-112840560D01*
X169262320Y-123127560D02*
X169262320Y-121603560D01*
X169897320Y-119190560D02*
X169897320Y-118809560D01*
X169719520Y-118047560D02*
X169719520Y-117412560D01*
X169236920Y-113094560D02*
X169236920Y-112840560D01*
X169694120Y-118047560D02*
X169694120Y-117412560D01*
X170278320Y-112408760D02*
X170278320Y-112027760D01*
X169668720Y-116675960D02*
X169668720Y-116421960D01*
X169440120Y-115558360D02*
X169440120Y-115304360D01*
X170075120Y-113094560D02*
X170075120Y-112840560D01*
X168474920Y-122873560D02*
X168474920Y-121222560D01*
X169795720Y-117107760D02*
X169795720Y-116853760D01*
X170075120Y-121959160D02*
X170075120Y-121070160D01*
X169821120Y-122594160D02*
X169821120Y-122492560D01*
X169313120Y-121171760D02*
X169313120Y-121070160D01*
X169567120Y-116675960D02*
X169567120Y-116421960D01*
X169338520Y-117107760D02*
X169338520Y-116853760D01*
X170278320Y-123051360D02*
X170278320Y-122873560D01*
X168678120Y-123076760D02*
X168678120Y-122771960D01*
X169186120Y-118453960D02*
X169186120Y-117463360D01*
X169617920Y-112815160D02*
X169617920Y-112510360D01*
X169389320Y-112637360D02*
X169389320Y-112281760D01*
X169973520Y-112662760D02*
X169973520Y-112307160D01*
X170227520Y-119012760D02*
X170227520Y-118657160D01*
X169135320Y-114339160D02*
X169135320Y-113450160D01*
X169567120Y-119342960D02*
X169567120Y-118987360D01*
X168525720Y-122924360D02*
X168525720Y-121222560D01*
X169871920Y-113094560D02*
X169871920Y-112840560D01*
X170151320Y-114516960D02*
X170151320Y-114085160D01*
X168906720Y-119647760D02*
X168906720Y-119317560D01*
X170227520Y-113094560D02*
X170227520Y-112840560D01*
X169211520Y-115482160D02*
X169211520Y-115050360D01*
X169440120Y-121628960D02*
X169440120Y-121425760D01*
X170049720Y-113094560D02*
X170049720Y-112840560D01*
X169440120Y-115253560D02*
X169440120Y-114974160D01*
X169338520Y-118580960D02*
X169338520Y-118174560D01*
X169389320Y-123127560D02*
X169389320Y-122314760D01*
X170024320Y-123381560D02*
X170024320Y-123203760D01*
X169008320Y-123381560D02*
X169008320Y-123100000D01*
X170456120Y-118911160D02*
X170456120Y-118530160D01*
X169287720Y-112535760D02*
X169287720Y-112205560D01*
X169033720Y-113094560D02*
X169033720Y-112840560D01*
X169313120Y-121501960D02*
X169313120Y-121298760D01*
X169287720Y-113094560D02*
X169287720Y-112840560D01*
X169643320Y-116675960D02*
X169643320Y-116421960D01*
X168957520Y-119673160D02*
X168957520Y-119292160D01*
X169490920Y-119927160D02*
X169490920Y-119571560D01*
D12*
%TO.C,T1*%
X164430000Y-123727000D02*
X164430000Y-122500000D01*
X157570000Y-110773000D02*
X164430000Y-110773000D01*
X164430000Y-110773000D02*
X164430000Y-112000000D01*
X164430000Y-123727000D02*
X157570000Y-123727000D01*
X157570000Y-112000000D02*
X157570000Y-110773000D01*
X157570000Y-123727000D02*
X157570000Y-122500000D01*
D11*
%TO.C,C28*%
X139385000Y-112950000D02*
X139385000Y-113550000D01*
X138115000Y-113550000D02*
X138115000Y-112950000D01*
%TO.C,C10*%
X132635000Y-89200000D02*
X132635000Y-89800000D01*
X131365000Y-89800000D02*
X131365000Y-89200000D01*
%TO.C,L2*%
X136588855Y-84513119D02*
X137013119Y-84088855D01*
X137911145Y-84986881D02*
X137486881Y-85411145D01*
%TD*%
M02*
